<svg width="1200" height="630" viewBox="0 0 1200 630" xmlns="http://www.w3.org/2000/svg"><defs><pattern id="satori_pattern_id_0" x="0" y="0" width="1" height="1" patternUnits="objectBoundingBox"><linearGradient id="satori_biid_0" x1="0" y1="0" x2="1" y2="0"><stop offset="0%" stop-color="#334d50"/><stop offset="100%" stop-color="#cbcaa5"/></linearGradient><rect x="0" y="0" width="1200" height="630" fill="url(#satori_biid_0)"/></pattern></defs><mask id="satori_om-id"><rect x="0" y="0" width="1200" height="630" fill="#fff"/></mask><rect x="0" y="0" width="1200" height="630" fill="#000"/><rect x="0" y="0" width="1200" height="630" fill="url(#satori_pattern_id_0)"/><mask id="satori_om-id-0"><rect x="500" y="98" width="200" height="200" fill="#fff"/></mask><clipPath id="satori_cp-id-0-0"><rect x="500" y="98" width="200" height="200"/></clipPath><mask id="satori_om-id-0-0"><rect x="500" y="98" width="200" height="200" fill="#fff"/></mask><image x="500" y="98" width="200" height="200" href="data:image/svg+xml;utf8,%3Csvg  xmlns=%22http://www.w3.org/2000/svg%22 width=%22null%22 height=%22null%22 viewBox=%220 0 200 200%22%3E%3Cg fill=%22none%22 stroke=%22%23fff%22 stroke-width=%223%22%3E%3Cpath d=%22M20 100h160m-80-80v160M43 43l114 114m-114 0L157 43%22%3E%3C/path%3E%3Ccircle cx=%2220%22 cy=%22100%22 r=%225%22%3E%3C/circle%3E%3Ccircle cx=%22180%22 cy=%22100%22 r=%225%22%3E%3C/circle%3E%3Ccircle cx=%22100%22 cy=%2220%22 r=%225%22%3E%3C/circle%3E%3Ccircle cx=%22100%22 cy=%22180%22 r=%225%22%3E%3C/circle%3E%3Ccircle cx=%2243%22 cy=%2243%22 r=%225%22%3E%3C/circle%3E%3Ccircle cx=%22157%22 cy=%22157%22 r=%225%22%3E%3C/circle%3E%3Ccircle cx=%2243%22 cy=%22157%22 r=%225%22%3E%3C/circle%3E%3Ccircle cx=%22157%22 cy=%2243%22 r=%225%22%3E%3C/circle%3E%3Cpath stroke-width=%222%22 d=%22m43 157 57-137 57 137z%22%3E%3C/path%3E%3C/g%3E%3C/svg%3E" preserveAspectRatio="none" clip-path="url(#satori_cp-id-0-0)" mask="url(#satori_om-id-0-0)"/><mask id="satori_om-id-0-0-0"><rect x="500" y="98" width="0" height="200" fill="#fff"/></mask><mask id="satori_om-id-0-0-0-0"><rect x="500" y="98" width="0" height="200" fill="#fff"/></mask><mask id="satori_om-id-0-0-0-1"><rect x="500" y="98" width="0" height="200" fill="#fff"/></mask><mask id="satori_om-id-0-0-0-2"><rect x="500" y="98" width="0" height="200" fill="#fff"/></mask><mask id="satori_om-id-0-0-0-3"><rect x="500" y="98" width="0" height="200" fill="#fff"/></mask><mask id="satori_om-id-0-0-0-4"><rect x="500" y="98" width="0" height="200" fill="#fff"/></mask><mask id="satori_om-id-0-0-0-5"><rect x="500" y="98" width="0" height="200" fill="#fff"/></mask><mask id="satori_om-id-0-0-0-6"><rect x="500" y="98" width="0" height="200" fill="#fff"/></mask><mask id="satori_om-id-0-0-0-7"><rect x="500" y="98" width="0" height="200" fill="#fff"/></mask><mask id="satori_om-id-0-0-0-8"><rect x="500" y="98" width="0" height="200" fill="#fff"/></mask><mask id="satori_om-id-0-0-0-9"><rect x="500" y="98" width="0" height="200" fill="#fff"/></mask><mask id="satori_om-id-1"><rect x="0" y="338" width="1200" height="39" fill="#fff"/></mask><mask id="satori_om-id-1-0"><rect x="0" y="338" width="516" height="39" fill="#fff"/></mask><path fill="#000" d="M423.8 368.3L423.8 368.3Q421.1 368.3 419.2 367.2Q417.3 366.0 416.3 364.0Q415.2 361.9 415.2 359.3L415.2 359.3Q415.2 356.6 416.3 354.6Q417.3 352.6 419.2 351.4Q421.1 350.3 423.8 350.3L423.8 350.3Q426.1 350.3 427.8 351.1Q429.5 351.9 430.5 353.4Q431.5 354.9 431.6 357.0L431.6 357.0L427.0 357.0Q426.9 355.6 426.0 354.8Q425.2 354.0 423.9 354.0L423.9 354.0Q422.8 354.0 421.9 354.7Q421.1 355.3 420.6 356.4Q420.1 357.6 420.1 359.2L420.1 359.2Q420.1 360.9 420.6 362.1Q421.1 363.2 421.9 363.8Q422.8 364.5 423.9 364.5L423.9 364.5Q424.7 364.5 425.4 364.1Q426.0 363.8 426.5 363.1Q426.9 362.5 427.0 361.6L427.0 361.6L431.6 361.6Q431.5 363.6 430.5 365.1Q429.6 366.6 427.9 367.4Q426.1 368.3 423.8 368.3ZM439.6 368.0L434.7 368.0L434.7 350.5L439.4 350.5L439.4 353.5L439.6 353.5Q440.1 351.9 441.2 351.1Q442.3 350.2 443.8 350.2L443.8 350.2Q444.2 350.2 444.6 350.3Q445 350.3 445.3 350.4L445.3 350.4L445.3 354.7Q445.0 354.6 444.4 354.5Q443.8 354.5 443.3 354.5L443.3 354.5Q442.2 354.5 441.4 354.9Q440.5 355.4 440.1 356.2Q439.6 357.0 439.6 358.1L439.6 358.1L439.6 368.0ZM454.9 368.3L454.9 368.3Q452.3 368.3 450.3 367.2Q448.4 366.1 447.3 364.1Q446.3 362.1 446.3 359.3L446.3 359.3Q446.3 356.6 447.3 354.6Q448.4 352.5 450.3 351.4Q452.2 350.3 454.8 350.3L454.8 350.3Q456.5 350.3 458.0 350.8Q459.5 351.4 460.6 352.5Q461.7 353.6 462.3 355.2Q463.0 356.9 463.0 359.1L463.0 359.1L463.0 360.5L448.2 360.5L448.2 357.5L458.4 357.5Q458.4 356.4 457.9 355.6Q457.5 354.8 456.7 354.3Q455.9 353.9 454.8 353.9L454.8 353.9Q453.7 353.9 452.9 354.4Q452.0 354.9 451.6 355.7Q451.1 356.6 451.1 357.6L451.1 357.6L451.1 360.5Q451.1 361.8 451.6 362.7Q452.0 363.7 452.9 364.2Q453.8 364.7 455.0 364.7L455.0 364.7Q455.8 364.7 456.5 364.5Q457.2 364.2 457.6 363.8Q458.1 363.3 458.4 362.7L458.4 362.7L462.9 363.0Q462.5 364.6 461.5 365.8Q460.4 367.0 458.8 367.6Q457.1 368.3 454.9 368.3ZM471.1 368.3L471.1 368.3Q469.4 368.3 468.1 367.7Q466.8 367.1 466.1 366.0Q465.3 364.8 465.3 363.1L465.3 363.1Q465.3 361.6 465.8 360.6Q466.4 359.6 467.3 359.0Q468.2 358.4 469.4 358.1Q470.6 357.8 471.9 357.7L471.9 357.7Q473.4 357.5 474.3 357.4Q475.2 357.3 475.7 357.0Q476.1 356.7 476.1 356.1L476.1 356.1L476.1 356.1Q476.1 355.0 475.4 354.4Q474.7 353.8 473.5 353.8L473.5 353.8Q472.2 353.8 471.4 354.4Q470.6 355.0 470.4 355.8L470.4 355.8L465.9 355.5Q466.3 353.9 467.3 352.7Q468.3 351.5 469.8 350.9Q471.4 350.3 473.5 350.3L473.5 350.3Q475.0 350.3 476.3 350.6Q477.6 351.0 478.7 351.7Q479.7 352.4 480.3 353.5Q480.9 354.6 480.9 356.2L480.9 356.2L480.9 368.0L476.3 368.0L476.3 365.5L476.2 365.5Q475.8 366.3 475.1 367.0Q474.4 367.6 473.4 367.9Q472.4 368.3 471.1 368.3ZM472.5 364.9L472.5 364.9Q473.5 364.9 474.4 364.5Q475.2 364.1 475.6 363.4Q476.1 362.6 476.1 361.7L476.1 361.7L476.1 359.9Q475.9 360.0 475.5 360.1Q475.1 360.2 474.6 360.3Q474.1 360.4 473.6 360.5Q473.1 360.6 472.8 360.6L472.8 360.6Q471.9 360.8 471.3 361.0Q470.6 361.3 470.3 361.8Q469.9 362.2 469.9 362.9L469.9 362.9Q469.9 363.9 470.6 364.4Q471.4 364.9 472.5 364.9ZM483.5 350.5L494.0 350.5L494.0 354.1L483.5 354.1L483.5 350.5ZM485.8 363.2L485.8 346.3L490.7 346.3L490.7 362.6Q490.7 363.3 490.9 363.6Q491.1 364.0 491.5 364.1Q491.8 364.3 492.3 364.3L492.3 364.3Q492.7 364.3 493 364.2Q493.3 364.2 493.5 364.1L493.5 364.1L494.3 367.7Q493.9 367.8 493.3 368.0Q492.6 368.2 491.7 368.2L491.7 368.2Q489.9 368.3 488.6 367.7Q487.3 367.2 486.6 366.1Q485.8 364.9 485.8 363.2L485.8 363.2ZM504.9 368.3L504.9 368.3Q502.2 368.3 500.3 367.2Q498.3 366.1 497.3 364.1Q496.2 362.1 496.2 359.3L496.2 359.3Q496.2 356.6 497.3 354.6Q498.3 352.5 500.2 351.4Q502.1 350.3 504.7 350.3L504.7 350.3Q506.4 350.3 507.9 350.8Q509.4 351.4 510.5 352.5Q511.6 353.6 512.3 355.2Q512.9 356.9 512.9 359.1L512.9 359.1L512.9 360.5L498.2 360.5L498.2 357.5L508.3 357.5Q508.3 356.4 507.9 355.6Q507.4 354.8 506.6 354.3Q505.8 353.9 504.8 353.9L504.8 353.9Q503.7 353.9 502.8 354.4Q502.0 354.9 501.5 355.7Q501.0 356.6 501.0 357.6L501.0 357.6L501.0 360.5Q501.0 361.8 501.5 362.7Q502.0 363.7 502.9 364.2Q503.8 364.7 505.0 364.7L505.0 364.7Q505.8 364.7 506.4 364.5Q507.1 364.2 507.6 363.8Q508.1 363.3 508.3 362.7L508.3 362.7L512.8 363.0Q512.5 364.6 511.4 365.8Q510.4 367.0 508.7 367.6Q507.0 368.3 504.9 368.3Z "/><mask id="satori_om-id-1-1"><rect x="516" y="338" width="684" height="39" fill="#fff"/></mask><path fill="#fff" d="M540.8 368.3L540.8 368.3Q538.2 368.3 536.2 367.2Q534.3 366.0 533.3 364.0Q532.2 362.0 532.2 359.3L532.2 359.3Q532.2 356.6 533.3 354.6Q534.3 352.5 536.2 351.4Q538.2 350.3 540.8 350.3L540.8 350.3Q543.5 350.3 545.4 351.4Q547.3 352.5 548.4 354.6Q549.4 356.6 549.4 359.3L549.4 359.3Q549.4 362.0 548.4 364.0Q547.3 366.0 545.4 367.2Q543.5 368.3 540.8 368.3ZM540.8 364.5L540.8 364.5Q542.0 364.5 542.9 363.9Q543.7 363.2 544.1 362.0Q544.5 360.8 544.5 359.3L544.5 359.3Q544.5 357.7 544.1 356.5Q543.7 355.3 542.9 354.7Q542.0 354.0 540.8 354.0L540.8 354.0Q539.6 354.0 538.8 354.7Q538.0 355.3 537.6 356.5Q537.1 357.7 537.1 359.3L537.1 359.3Q537.1 360.8 537.6 362.0Q538.0 363.2 538.8 363.9Q539.6 364.5 540.8 364.5ZM557.4 357.9L557.4 357.9L557.4 368.0L552.6 368.0L552.6 350.5L557.2 350.5L557.2 353.6L557.4 353.6Q558.0 352.1 559.3 351.2Q560.7 350.3 562.6 350.3L562.6 350.3Q564.5 350.3 565.8 351.1Q567.2 351.9 567.9 353.3Q568.7 354.8 568.7 356.8L568.7 356.8L568.7 368.0L563.8 368.0L563.8 357.7Q563.8 356.1 563 355.2Q562.2 354.3 560.7 354.3L560.7 354.3Q559.7 354.3 559.0 354.7Q558.3 355.1 557.8 355.9Q557.4 356.7 557.4 357.9ZM572.7 356.5L583.3 356.5L583.3 360.3L572.7 360.3L572.7 356.5ZM595.4 368.3L595.4 368.3Q592.7 368.3 590.7 367.2Q588.8 366.0 587.8 364.0Q586.8 361.9 586.8 359.3L586.8 359.3Q586.8 356.6 587.8 354.6Q588.8 352.6 590.8 351.4Q592.7 350.3 595.3 350.3L595.3 350.3Q597.6 350.3 599.3 351.1Q601.0 351.9 602.0 353.4Q603.0 354.9 603.1 357.0L603.1 357.0L598.6 357.0Q598.4 355.6 597.6 354.8Q596.7 354.0 595.4 354.0L595.4 354.0Q594.3 354.0 593.4 354.7Q592.6 355.3 592.1 356.4Q591.7 357.6 591.7 359.2L591.7 359.2Q591.7 360.9 592.1 362.1Q592.6 363.2 593.4 363.8Q594.3 364.5 595.4 364.5L595.4 364.5Q596.2 364.5 596.9 364.1Q597.6 363.8 598.0 363.1Q598.4 362.5 598.6 361.6L598.6 361.6L603.1 361.6Q603.0 363.6 602.1 365.1Q601.1 366.6 599.4 367.4Q597.7 368.3 595.4 368.3ZM611.1 357.9L611.1 357.9L611.1 368.0L606.3 368.0L606.3 344.7L611.0 344.7L611.0 353.6L611.2 353.6Q611.8 352.0 613.1 351.2Q614.4 350.3 616.4 350.3L616.4 350.3Q618.2 350.3 619.6 351.1Q620.9 351.8 621.7 353.3Q622.4 354.8 622.4 356.8L622.4 356.8L622.4 368.0L617.6 368.0L617.6 357.7Q617.6 356.1 616.8 355.2Q615.9 354.3 614.5 354.3L614.5 354.3Q613.5 354.3 612.7 354.7Q612.0 355.1 611.5 355.9Q611.1 356.7 611.1 357.9ZM631.2 368.3L631.2 368.3Q629.5 368.3 628.2 367.7Q626.9 367.1 626.2 366.0Q625.4 364.8 625.4 363.1L625.4 363.1Q625.4 361.6 626.0 360.6Q626.5 359.6 627.4 359.0Q628.3 358.4 629.5 358.1Q630.7 357.8 632.0 357.7L632.0 357.7Q633.5 357.5 634.4 357.4Q635.4 357.3 635.8 357.0Q636.2 356.7 636.2 356.1L636.2 356.1L636.2 356.1Q636.2 355.0 635.5 354.4Q634.9 353.8 633.6 353.8L633.6 353.8Q632.3 353.8 631.5 354.4Q630.8 355.0 630.5 355.8L630.5 355.8L626.0 355.5Q626.4 353.9 627.4 352.7Q628.4 351.5 630.0 350.9Q631.5 350.3 633.6 350.3L633.6 350.3Q635.1 350.3 636.4 350.6Q637.8 351.0 638.8 351.7Q639.8 352.4 640.4 353.5Q641.0 354.6 641.0 356.2L641.0 356.2L641.0 368.0L636.5 368.0L636.5 365.5L636.3 365.5Q635.9 366.3 635.2 367.0Q634.5 367.6 633.5 367.9Q632.5 368.3 631.2 368.3ZM632.6 364.9L632.6 364.9Q633.7 364.9 634.5 364.5Q635.3 364.1 635.8 363.4Q636.2 362.6 636.2 361.7L636.2 361.7L636.2 359.9Q636.0 360.0 635.6 360.1Q635.2 360.2 634.7 360.3Q634.3 360.4 633.8 360.5Q633.3 360.6 632.9 360.6L632.9 360.6Q632.0 360.8 631.4 361.0Q630.8 361.3 630.4 361.8Q630.0 362.2 630.0 362.9L630.0 362.9Q630.0 363.9 630.8 364.4Q631.5 364.9 632.6 364.9ZM649.6 368.0L644.8 368.0L644.8 350.5L649.6 350.5L649.6 368.0ZM647.2 348.2L647.2 348.2Q646.2 348.2 645.4 347.5Q644.6 346.8 644.6 345.8L644.6 345.8Q644.6 344.8 645.4 344.1Q646.2 343.3 647.2 343.3L647.2 343.3Q648.3 343.3 649.1 344.1Q649.9 344.8 649.9 345.8L649.9 345.8Q649.9 346.8 649.1 347.5Q648.3 348.2 647.2 348.2ZM658.4 357.9L658.4 357.9L658.4 368.0L653.5 368.0L653.5 350.5L658.1 350.5L658.1 353.6L658.3 353.6Q658.9 352.1 660.3 351.2Q661.6 350.3 663.6 350.3L663.6 350.3Q665.4 350.3 666.8 351.1Q668.1 351.9 668.9 353.3Q669.6 354.8 669.6 356.8L669.6 356.8L669.6 368.0L664.8 368.0L664.8 357.7Q664.8 356.1 663.9 355.2Q663.1 354.3 661.7 354.3L661.7 354.3Q660.7 354.3 659.9 354.7Q659.2 355.1 658.8 355.9Q658.4 356.7 658.4 357.9Z "/><mask id="satori_om-id-2"><rect x="0" y="377" width="1200" height="39" fill="#fff"/></mask><mask id="satori_om-id-2-0"><rect x="0" y="377" width="516" height="39" fill="#fff"/></mask><mask id="satori_om-id-2-1"><rect x="516" y="377" width="684" height="39" fill="#fff"/></mask><path fill="#fff" d="M531.5 389.5L542.3 389.5L542.3 393.1L531.5 393.1L531.5 389.5ZM538.8 407.0L534.0 407.0L534.0 388.2Q534.0 386.3 534.8 385.1Q535.5 383.8 536.8 383.2Q538.1 382.6 539.7 382.6L539.7 382.6Q540.9 382.6 541.8 382.8Q542.7 382.9 543.2 383.1L543.2 383.1L542.3 386.7Q542.0 386.6 541.6 386.5Q541.2 386.5 540.8 386.5L540.8 386.5Q539.7 386.5 539.3 386.9Q538.8 387.4 538.8 388.3L538.8 388.3L538.8 407.0ZM550.1 407.0L545.3 407.0L545.3 389.5L550.0 389.5L550.0 392.5L550.1 392.5Q550.6 390.9 551.8 390.1Q552.9 389.2 554.3 389.2L554.3 389.2Q554.7 389.2 555.1 389.3Q555.5 389.3 555.9 389.4L555.9 389.4L555.9 393.7Q555.5 393.6 554.9 393.5Q554.3 393.5 553.8 393.5L553.8 393.5Q552.8 393.5 551.9 393.9Q551.1 394.4 550.6 395.2Q550.1 396.0 550.1 397.1L550.1 397.1L550.1 407.0ZM565.5 407.3L565.5 407.3Q562.8 407.3 560.9 406.2Q558.9 405.1 557.9 403.1Q556.8 401.1 556.8 398.3L556.8 398.3Q556.8 395.6 557.9 393.6Q558.9 391.5 560.8 390.4Q562.7 389.3 565.3 389.3L565.3 389.3Q567.0 389.3 568.5 389.8Q570.0 390.4 571.1 391.5Q572.3 392.6 572.9 394.2Q573.5 395.9 573.5 398.1L573.5 398.1L573.5 399.5L558.8 399.5L558.8 396.5L568.9 396.5Q568.9 395.4 568.5 394.6Q568.0 393.8 567.2 393.3Q566.4 392.9 565.4 392.9L565.4 392.9Q564.3 392.9 563.4 393.4Q562.6 393.9 562.1 394.7Q561.6 395.6 561.6 396.6L561.6 396.6L561.6 399.5Q561.6 400.8 562.1 401.7Q562.6 402.7 563.5 403.2Q564.4 403.7 565.6 403.7L565.6 403.7Q566.4 403.7 567.0 403.5Q567.7 403.2 568.2 402.8Q568.7 402.3 568.9 401.7L568.9 401.7L573.4 402.0Q573.1 403.6 572.0 404.8Q571.0 406.0 569.3 406.6Q567.6 407.3 565.5 407.3ZM584.6 407.3L584.6 407.3Q581.9 407.3 580.0 406.2Q578.0 405.1 577 403.1Q576.0 401.1 576.0 398.3L576.0 398.3Q576.0 395.6 577 393.6Q578.0 391.5 579.9 390.4Q581.9 389.3 584.4 389.3L584.4 389.3Q586.1 389.3 587.6 389.8Q589.1 390.4 590.3 391.5Q591.4 392.6 592 394.2Q592.6 395.9 592.6 398.1L592.6 398.1L592.6 399.5L577.9 399.5L577.9 396.5L588.1 396.5Q588.1 395.4 587.6 394.6Q587.2 393.8 586.4 393.3Q585.6 392.9 584.5 392.9L584.5 392.9Q583.4 392.9 582.6 393.4Q581.7 393.9 581.2 394.7Q580.8 395.6 580.7 396.6L580.7 396.6L580.7 399.5Q580.7 400.8 581.2 401.7Q581.7 402.7 582.6 403.2Q583.5 403.7 584.7 403.7L584.7 403.7Q585.5 403.7 586.2 403.5Q586.8 403.2 587.3 402.8Q587.8 402.3 588.0 401.7L588.0 401.7L592.5 402.0Q592.2 403.6 591.1 404.8Q590.1 406.0 588.4 406.6Q586.8 407.3 584.6 407.3Z "/><mask id="satori_om-id-3"><rect x="0" y="416" width="1200" height="38" fill="#fff"/></mask><mask id="satori_om-id-3-0"><rect x="0" y="416" width="516" height="38" fill="#fff"/></mask><mask id="satori_om-id-3-1"><rect x="516" y="416" width="684" height="38" fill="#fff"/></mask><path fill="#fff" d="M540.8 446.3L540.8 446.3Q538.1 446.3 536.2 445.2Q534.3 444.0 533.3 442.0Q532.2 439.9 532.2 437.3L532.2 437.3Q532.2 434.6 533.3 432.6Q534.3 430.6 536.2 429.4Q538.1 428.3 540.8 428.3L540.8 428.3Q543.1 428.3 544.8 429.1Q546.5 429.9 547.5 431.4Q548.5 432.9 548.6 435.0L548.6 435.0L544.0 435.0Q543.9 433.6 543.0 432.8Q542.2 432.0 540.9 432.0L540.9 432.0Q539.8 432.0 538.9 432.7Q538.1 433.3 537.6 434.4Q537.1 435.6 537.1 437.2L537.1 437.2Q537.1 438.9 537.6 440.1Q538.1 441.2 538.9 441.8Q539.8 442.5 540.9 442.5L540.9 442.5Q541.7 442.5 542.4 442.1Q543.0 441.8 543.5 441.1Q543.9 440.5 544.0 439.6L544.0 439.6L548.6 439.6Q548.5 441.6 547.5 443.1Q546.6 444.6 544.9 445.4Q543.1 446.3 540.8 446.3ZM559.6 446.3L559.6 446.3Q557.0 446.3 555.0 445.2Q553.1 444.0 552.1 442.0Q551.0 440.0 551.0 437.3L551.0 437.3Q551.0 434.6 552.1 432.6Q553.1 430.5 555.0 429.4Q557.0 428.3 559.6 428.3L559.6 428.3Q562.3 428.3 564.2 429.4Q566.1 430.5 567.2 432.6Q568.2 434.6 568.2 437.3L568.2 437.3Q568.2 440.0 567.2 442.0Q566.1 444.0 564.2 445.2Q562.3 446.3 559.6 446.3ZM559.6 442.5L559.6 442.5Q560.8 442.5 561.6 441.9Q562.5 441.2 562.9 440.0Q563.3 438.8 563.3 437.3L563.3 437.3Q563.3 435.7 562.9 434.5Q562.5 433.3 561.6 432.7Q560.8 432.0 559.6 432.0L559.6 432.0Q558.4 432.0 557.6 432.7Q556.8 433.3 556.4 434.5Q555.9 435.7 555.9 437.3L555.9 437.3Q555.9 438.8 556.4 440.0Q556.8 441.2 557.6 441.9Q558.4 442.5 559.6 442.5ZM576.2 446.0L571.4 446.0L571.4 428.5L576.0 428.5L576.0 431.6L576.2 431.6Q576.7 430.0 578 429.2Q579.3 428.3 581.0 428.3L581.0 428.3Q582.8 428.3 584.1 429.2Q585.4 430.1 585.8 431.6L585.8 431.6L586.0 431.6Q586.5 430.1 587.9 429.2Q589.3 428.3 591.2 428.3L591.2 428.3Q593.7 428.3 595.2 429.8Q596.7 431.4 596.7 434.2L596.7 434.2L596.7 446.0L591.9 446.0L591.9 435.2Q591.9 433.7 591.1 433.0Q590.4 432.3 589.2 432.3L589.2 432.3Q587.9 432.3 587.1 433.1Q586.4 433.9 586.4 435.3L586.4 435.3L586.4 446.0L581.7 446.0L581.7 435.1Q581.7 433.8 581.0 433.0Q580.2 432.3 579.0 432.3L579.0 432.3Q578.2 432.3 577.6 432.7Q577.0 433.1 576.6 433.8Q576.2 434.5 576.2 435.5L576.2 435.5L576.2 446.0ZM605.4 446.0L600.5 446.0L600.5 428.5L605.2 428.5L605.2 431.6L605.4 431.6Q605.9 430.0 607.2 429.2Q608.5 428.3 610.2 428.3L610.2 428.3Q612.0 428.3 613.3 429.2Q614.5 430.1 615.0 431.6L615.0 431.6L615.1 431.6Q615.7 430.1 617.1 429.2Q618.5 428.3 620.4 428.3L620.4 428.3Q622.9 428.3 624.4 429.8Q625.9 431.4 625.9 434.2L625.9 434.2L625.9 446.0L621.1 446.0L621.1 435.2Q621.1 433.7 620.3 433.0Q619.5 432.3 618.4 432.3L618.4 432.3Q617.1 432.3 616.3 433.1Q615.6 433.9 615.6 435.3L615.6 435.3L615.6 446.0L610.9 446.0L610.9 435.1Q610.9 433.8 610.2 433.0Q609.4 432.3 608.2 432.3L608.2 432.3Q607.4 432.3 606.8 432.7Q606.1 433.1 605.8 433.8Q605.4 434.5 605.4 435.5L605.4 435.5L605.4 446.0ZM640.9 438.5L640.9 438.5L640.9 428.5L645.8 428.5L645.8 446.0L641.1 446.0L641.1 442.8L640.9 442.8Q640.3 444.3 639.0 445.2Q637.6 446.2 635.6 446.2L635.6 446.2Q633.9 446.2 632.6 445.4Q631.2 444.6 630.5 443.1Q629.7 441.7 629.7 439.6L629.7 439.6L629.7 428.5L634.6 428.5L634.6 438.7Q634.6 440.3 635.4 441.2Q636.2 442.1 637.6 442.1L637.6 442.1Q638.5 442.1 639.2 441.7Q640.0 441.3 640.5 440.5Q640.9 439.7 640.9 438.5ZM654.5 435.9L654.5 435.9L654.5 446.0L649.6 446.0L649.6 428.5L654.2 428.5L654.2 431.6L654.4 431.6Q655.0 430.1 656.4 429.2Q657.7 428.3 659.7 428.3L659.7 428.3Q661.5 428.3 662.9 429.1Q664.2 429.9 665.0 431.3Q665.7 432.8 665.7 434.8L665.7 434.8L665.7 446.0L660.9 446.0L660.9 435.7Q660.9 434.1 660.1 433.2Q659.2 432.3 657.8 432.3L657.8 432.3Q656.8 432.3 656.1 432.7Q655.3 433.1 654.9 433.9Q654.5 434.7 654.5 435.9ZM674.4 446.0L669.5 446.0L669.5 428.5L674.4 428.5L674.4 446.0ZM672.0 426.2L672.0 426.2Q670.9 426.2 670.1 425.5Q669.3 424.8 669.3 423.8L669.3 423.8Q669.3 422.8 670.1 422.1Q670.9 421.3 672.0 421.3L672.0 421.3Q673.0 421.3 673.8 422.1Q674.6 422.8 674.6 423.8L674.6 423.8Q674.6 424.8 673.8 425.5Q673.0 426.2 672.0 426.2ZM677.0 428.5L687.5 428.5L687.5 432.1L677.0 432.1L677.0 428.5ZM679.4 441.2L679.4 424.3L684.2 424.3L684.2 440.6Q684.2 441.3 684.4 441.6Q684.6 442.0 685.0 442.1Q685.4 442.3 685.9 442.3L685.9 442.3Q686.2 442.3 686.5 442.2Q686.9 442.2 687.1 442.1L687.1 442.1L687.8 445.7Q687.5 445.8 686.8 446.0Q686.1 446.2 685.2 446.2L685.2 446.2Q683.5 446.3 682.1 445.7Q680.8 445.2 680.1 444.1Q679.4 442.9 679.4 441.2L679.4 441.2ZM693.6 452.5L693.6 452.5Q692.7 452.5 691.9 452.4Q691.1 452.2 690.6 452.0L690.6 452.0L691.7 448.4Q692.5 448.6 693.2 448.7Q693.9 448.7 694.4 448.3Q694.9 448.0 695.2 447.2L695.2 447.2L695.5 446.5L689.3 428.5L694.4 428.5L698.0 441.3L698.2 441.3L701.8 428.5L706.9 428.5L700.1 447.8Q699.7 449.2 698.8 450.3Q698.0 451.3 696.7 451.9Q695.4 452.5 693.6 452.5Z "/><mask id="satori_om-id-4"><rect x="0" y="454" width="1200" height="39" fill="#fff"/></mask><mask id="satori_om-id-4-0"><rect x="0" y="454" width="516" height="39" fill="#fff"/></mask><mask id="satori_om-id-4-1"><rect x="516" y="454" width="684" height="39" fill="#fff"/></mask><path fill="#fff" d="M539.4 484.2L539.4 484.2Q537.4 484.2 535.8 483.2Q534.2 482.2 533.2 480.2Q532.3 478.2 532.3 475.2L532.3 475.2Q532.3 472.2 533.3 470.3Q534.2 468.3 535.8 467.3Q537.4 466.3 539.4 466.3L539.4 466.3Q540.8 466.3 541.8 466.8Q542.8 467.3 543.4 468.0Q544 468.7 544.3 469.4L544.3 469.4L544.5 469.4L544.5 460.7L549.3 460.7L549.3 484.0L544.5 484.0L544.5 481.2L544.3 481.2Q544.0 481.9 543.4 482.6Q542.7 483.3 541.8 483.8Q540.8 484.2 539.4 484.2ZM540.9 480.4L540.9 480.4Q542.1 480.4 542.9 479.7Q543.7 479.1 544.1 477.9Q544.6 476.8 544.6 475.2L544.6 475.2Q544.6 473.7 544.1 472.5Q543.7 471.4 542.9 470.7Q542.1 470.1 540.9 470.1L540.9 470.1Q539.7 470.1 538.9 470.8Q538.1 471.4 537.6 472.6Q537.2 473.7 537.2 475.2L537.2 475.2Q537.2 476.7 537.7 477.9Q538.1 479.1 538.9 479.7Q539.7 480.4 540.9 480.4ZM561.2 484.3L561.2 484.3Q558.5 484.3 556.6 483.2Q554.6 482.1 553.6 480.1Q552.6 478.1 552.6 475.3L552.6 475.3Q552.6 472.6 553.6 470.6Q554.6 468.5 556.6 467.4Q558.5 466.3 561.0 466.3L561.0 466.3Q562.8 466.3 564.2 466.8Q565.7 467.4 566.9 468.5Q568.0 469.6 568.6 471.2Q569.2 472.9 569.2 475.1L569.2 475.1L569.2 476.5L554.5 476.5L554.5 473.5L564.7 473.5Q564.7 472.4 564.2 471.6Q563.8 470.8 563.0 470.3Q562.2 469.9 561.1 469.9L561.1 469.9Q560 469.9 559.2 470.4Q558.3 470.9 557.8 471.7Q557.4 472.6 557.3 473.6L557.3 473.6L557.3 476.5Q557.3 477.8 557.8 478.7Q558.3 479.7 559.2 480.2Q560.1 480.7 561.3 480.7L561.3 480.7Q562.1 480.7 562.8 480.5Q563.4 480.2 563.9 479.8Q564.4 479.3 564.6 478.7L564.6 478.7L569.1 479.0Q568.8 480.6 567.7 481.8Q566.7 483.0 565.0 483.6Q563.4 484.3 561.2 484.3ZM571 466.5L581.8 466.5L581.8 470.1L571 470.1L571 466.5ZM578.3 484.0L573.5 484.0L573.5 465.2Q573.5 463.3 574.2 462.1Q575.0 460.8 576.3 460.2Q577.5 459.6 579.2 459.6L579.2 459.6Q580.3 459.6 581.2 459.8Q582.2 459.9 582.6 460.1L582.6 460.1L581.8 463.7Q581.5 463.6 581.1 463.5Q580.6 463.5 580.2 463.5L580.2 463.5Q579.1 463.5 578.7 463.9Q578.3 464.4 578.3 465.3L578.3 465.3L578.3 484.0ZM589.6 484.0L584.7 484.0L584.7 466.5L589.6 466.5L589.6 484.0ZM587.2 464.2L587.2 464.2Q586.1 464.2 585.3 463.5Q584.5 462.8 584.5 461.8L584.5 461.8Q584.5 460.8 585.3 460.1Q586.1 459.3 587.2 459.3L587.2 459.3Q588.2 459.3 589.0 460.1Q589.8 460.8 589.8 461.8L589.8 461.8Q589.8 462.8 589.0 463.5Q588.2 464.2 587.2 464.2Z "/><mask id="satori_om-id-5"><rect x="0" y="493" width="1200" height="39" fill="#fff"/></mask><mask id="satori_om-id-5-0"><rect x="0" y="493" width="516" height="39" fill="#fff"/></mask><mask id="satori_om-id-5-1"><rect x="516" y="493" width="684" height="39" fill="#fff"/></mask><path fill="#fff" d="M537.8 512.9L537.8 512.9L537.8 523.0L532.9 523.0L532.9 505.5L537.5 505.5L537.5 508.6L537.8 508.6Q538.3 507.1 539.7 506.2Q541.1 505.3 543 505.3L543 505.3Q544.8 505.3 546.2 506.1Q547.5 506.9 548.3 508.3Q549.0 509.8 549.0 511.8L549.0 511.8L549.0 523.0L544.2 523.0L544.2 512.7Q544.2 511.1 543.4 510.2Q542.5 509.3 541.1 509.3L541.1 509.3Q540.1 509.3 539.4 509.7Q538.6 510.1 538.2 510.9Q537.8 511.7 537.8 512.9ZM560.7 523.3L560.7 523.3Q558.1 523.3 556.1 522.2Q554.2 521.0 553.2 519.0Q552.1 517.0 552.1 514.3L552.1 514.3Q552.1 511.6 553.2 509.6Q554.2 507.5 556.1 506.4Q558.1 505.3 560.7 505.3L560.7 505.3Q563.4 505.3 565.3 506.4Q567.2 507.5 568.3 509.6Q569.3 511.6 569.3 514.3L569.3 514.3Q569.3 517.0 568.3 519.0Q567.2 521.0 565.3 522.2Q563.4 523.3 560.7 523.3ZM560.7 519.5L560.7 519.5Q561.9 519.5 562.8 518.9Q563.6 518.2 564.0 517.0Q564.4 515.8 564.4 514.3L564.4 514.3Q564.4 512.7 564.0 511.5Q563.6 510.3 562.8 509.7Q561.9 509.0 560.7 509.0L560.7 509.0Q559.5 509.0 558.7 509.7Q557.9 510.3 557.5 511.5Q557.0 512.7 557.0 514.3L557.0 514.3Q557.0 515.8 557.5 517.0Q557.9 518.2 558.7 518.9Q559.5 519.5 560.7 519.5ZM572.7 511.5L583.3 511.5L583.3 515.3L572.7 515.3L572.7 511.5ZM595.4 523.3L595.4 523.3Q592.7 523.3 590.7 522.2Q588.8 521.0 587.8 519.0Q586.8 516.9 586.8 514.3L586.8 514.3Q586.8 511.6 587.8 509.6Q588.8 507.6 590.8 506.4Q592.7 505.3 595.3 505.3L595.3 505.3Q597.6 505.3 599.3 506.1Q601.0 506.9 602.0 508.4Q603.0 509.9 603.1 512.0L603.1 512.0L598.6 512.0Q598.4 510.6 597.6 509.8Q596.7 509.0 595.4 509.0L595.4 509.0Q594.3 509.0 593.4 509.7Q592.6 510.3 592.1 511.4Q591.7 512.6 591.7 514.2L591.7 514.2Q591.7 515.9 592.1 517.1Q592.6 518.2 593.4 518.8Q594.3 519.5 595.4 519.5L595.4 519.5Q596.2 519.5 596.9 519.1Q597.6 518.8 598.0 518.1Q598.4 517.5 598.6 516.6L598.6 516.6L603.1 516.6Q603.0 518.6 602.1 520.1Q601.1 521.6 599.4 522.4Q597.7 523.3 595.4 523.3ZM614.1 523.3L614.1 523.3Q611.5 523.3 609.6 522.2Q607.6 521.0 606.6 519.0Q605.6 517.0 605.6 514.3L605.6 514.3Q605.6 511.6 606.6 509.6Q607.6 507.5 609.6 506.4Q611.5 505.3 614.1 505.3L614.1 505.3Q616.8 505.3 618.7 506.4Q620.6 507.5 621.7 509.6Q622.7 511.6 622.7 514.3L622.7 514.3Q622.7 517.0 621.7 519.0Q620.6 521.0 618.7 522.2Q616.8 523.3 614.1 523.3ZM614.2 519.5L614.2 519.5Q615.4 519.5 616.2 518.9Q617.0 518.2 617.4 517.0Q617.8 515.8 617.8 514.3L617.8 514.3Q617.8 512.7 617.4 511.5Q617.0 510.3 616.2 509.7Q615.4 509.0 614.2 509.0L614.2 509.0Q613.0 509.0 612.1 509.7Q611.3 510.3 610.9 511.5Q610.5 512.7 610.5 514.3L610.5 514.3Q610.5 515.8 610.9 517.0Q611.3 518.2 612.1 518.9Q613.0 519.5 614.2 519.5ZM632.3 523.2L632.3 523.2Q630.3 523.2 628.7 522.2Q627.1 521.2 626.2 519.2Q625.2 517.2 625.2 514.2L625.2 514.2Q625.2 511.2 626.2 509.3Q627.2 507.3 628.8 506.3Q630.4 505.3 632.3 505.3L632.3 505.3Q633.8 505.3 634.8 505.8Q635.7 506.3 636.4 507.0Q637.0 507.7 637.3 508.4L637.3 508.4L637.4 508.4L637.4 499.7L642.3 499.7L642.3 523.0L637.5 523.0L637.5 520.2L637.3 520.2Q636.9 520.9 636.3 521.6Q635.7 522.3 634.7 522.8Q633.7 523.2 632.3 523.2ZM633.9 519.4L633.9 519.4Q635.0 519.4 635.8 518.7Q636.7 518.1 637.1 516.9Q637.5 515.8 637.5 514.2L637.5 514.2Q637.5 512.7 637.1 511.5Q636.7 510.4 635.9 509.7Q635.0 509.1 633.9 509.1L633.9 509.1Q632.7 509.1 631.9 509.8Q631.0 510.4 630.6 511.6Q630.2 512.7 630.2 514.2L630.2 514.2Q630.2 515.7 630.6 516.9Q631.0 518.1 631.9 518.7Q632.7 519.4 633.9 519.4ZM654.2 523.3L654.2 523.3Q651.5 523.3 649.6 522.2Q647.6 521.1 646.6 519.1Q645.5 517.1 645.5 514.3L645.5 514.3Q645.5 511.6 646.6 509.6Q647.6 507.5 649.5 506.4Q651.4 505.3 654.0 505.3L654.0 505.3Q655.7 505.3 657.2 505.8Q658.7 506.4 659.8 507.5Q660.9 508.6 661.6 510.2Q662.2 511.9 662.2 514.1L662.2 514.1L662.2 515.5L647.5 515.5L647.5 512.5L657.6 512.5Q657.6 511.4 657.2 510.6Q656.7 509.8 655.9 509.3Q655.1 508.9 654.1 508.9L654.1 508.9Q653.0 508.9 652.1 509.4Q651.3 509.9 650.8 510.7Q650.3 511.6 650.3 512.6L650.3 512.6L650.3 515.5Q650.3 516.8 650.8 517.7Q651.3 518.7 652.2 519.2Q653.0 519.7 654.3 519.7L654.3 519.7Q655.1 519.7 655.7 519.5Q656.4 519.2 656.9 518.8Q657.4 518.3 657.6 517.7L657.6 517.7L662.1 518.0Q661.8 519.6 660.7 520.8Q659.6 522.0 658.0 522.6Q656.3 523.3 654.2 523.3Z "/><mask id="satori_om-id-5-1-1"><rect x="664" y="493" width="121" height="39" fill="#fff"/></mask><path fill="#000" d="M688.8 529.9L688.8 529.9Q686.4 529.9 684.8 529.2Q683.1 528.6 682.1 527.5Q681.1 526.4 680.8 525.0L680.8 525.0L685.3 524.4Q685.5 524.9 685.9 525.4Q686.4 525.8 687.1 526.1Q687.9 526.4 688.9 526.4L688.9 526.4Q690.5 526.4 691.5 525.6Q692.5 524.8 692.5 523.1L692.5 523.1L692.5 519.9L692.3 519.9Q692.0 520.6 691.4 521.2Q690.8 521.9 689.8 522.3Q688.8 522.7 687.4 522.7L687.4 522.7Q685.4 522.7 683.8 521.8Q682.2 520.9 681.2 519.0Q680.3 517.1 680.3 514.2L680.3 514.2Q680.3 511.2 681.3 509.2Q682.2 507.2 683.8 506.3Q685.4 505.3 687.4 505.3L687.4 505.3Q688.8 505.3 689.8 505.8Q690.8 506.3 691.4 507.0Q692.0 507.7 692.3 508.4L692.3 508.4L692.5 508.4L692.5 505.5L697.3 505.5L697.3 523.1Q697.3 525.3 696.2 526.8Q695.1 528.3 693.2 529.1Q691.3 529.9 688.8 529.9ZM688.9 519.1L688.9 519.1Q690.1 519.1 690.9 518.5Q691.7 517.9 692.1 516.8Q692.6 515.7 692.6 514.2L692.6 514.2Q692.6 512.6 692.1 511.5Q691.7 510.4 690.9 509.7Q690.1 509.1 688.9 509.1L688.9 509.1Q687.7 509.1 686.9 509.8Q686.1 510.4 685.6 511.5Q685.2 512.7 685.2 514.2L685.2 514.2Q685.2 515.7 685.7 516.8Q686.1 517.9 686.9 518.5Q687.7 519.1 688.9 519.1ZM706.2 523.3L706.2 523.3Q704.5 523.3 703.2 522.7Q701.9 522.1 701.1 521.0Q700.4 519.8 700.4 518.1L700.4 518.1Q700.4 516.6 700.9 515.6Q701.4 514.6 702.4 514.0Q703.3 513.4 704.5 513.1Q705.6 512.8 706.9 512.7L706.9 512.7Q708.5 512.5 709.4 512.4Q710.3 512.3 710.7 512.0Q711.2 511.7 711.2 511.1L711.2 511.1L711.2 511.1Q711.2 510.0 710.5 509.4Q709.8 508.8 708.6 508.8L708.6 508.8Q707.3 508.8 706.5 509.4Q705.7 510.0 705.5 510.8L705.5 510.8L701.0 510.5Q701.3 508.9 702.3 507.7Q703.3 506.5 704.9 505.9Q706.5 505.3 708.6 505.3L708.6 505.3Q710.0 505.3 711.4 505.6Q712.7 506.0 713.8 506.7Q714.8 507.4 715.4 508.5Q716 509.6 716 511.2L716 511.2L716 523.0L711.4 523.0L711.4 520.5L711.3 520.5Q710.9 521.3 710.1 522.0Q709.4 522.6 708.5 522.9Q707.5 523.3 706.2 523.3ZM707.6 519.9L707.6 519.9Q708.6 519.9 709.4 519.5Q710.3 519.1 710.7 518.4Q711.2 517.6 711.2 516.7L711.2 516.7L711.2 514.9Q711.0 515.0 710.6 515.1Q710.2 515.2 709.7 515.3Q709.2 515.4 708.7 515.5Q708.2 515.6 707.8 515.6L707.8 515.6Q707.0 515.8 706.3 516.0Q705.7 516.3 705.4 516.8Q705 517.2 705 517.9L705 517.9Q705 518.9 705.7 519.4Q706.4 519.9 707.6 519.9ZM724.6 523.0L719.8 523.0L719.8 505.5L724.4 505.5L724.4 508.6L724.6 508.6Q725.1 507.0 726.4 506.2Q727.7 505.3 729.4 505.3L729.4 505.3Q731.2 505.3 732.5 506.2Q733.8 507.1 734.2 508.6L734.2 508.6L734.4 508.6Q734.9 507.1 736.3 506.2Q737.7 505.3 739.6 505.3L739.6 505.3Q742.1 505.3 743.6 506.8Q745.1 508.4 745.1 511.2L745.1 511.2L745.1 523.0L740.3 523.0L740.3 512.2Q740.3 510.7 739.5 510.0Q738.8 509.3 737.6 509.3L737.6 509.3Q736.3 509.3 735.5 510.1Q734.8 510.9 734.8 512.3L734.8 512.3L734.8 523.0L730.1 523.0L730.1 512.1Q730.1 510.8 729.4 510.0Q728.6 509.3 727.4 509.3L727.4 509.3Q726.6 509.3 726.0 509.7Q725.4 510.1 725.0 510.8Q724.6 511.5 724.6 512.5L724.6 512.5L724.6 523.0ZM756.9 523.3L756.9 523.3Q754.2 523.3 752.3 522.2Q750.3 521.1 749.3 519.1Q748.2 517.1 748.2 514.3L748.2 514.3Q748.2 511.6 749.3 509.6Q750.3 507.5 752.2 506.4Q754.1 505.3 756.7 505.3L756.7 505.3Q758.4 505.3 759.9 505.8Q761.4 506.4 762.5 507.5Q763.7 508.6 764.3 510.2Q764.9 511.9 764.9 514.1L764.9 514.1L764.9 515.5L750.2 515.5L750.2 512.5L760.4 512.5Q760.4 511.4 759.9 510.6Q759.4 509.8 758.6 509.3Q757.8 508.9 756.8 508.9L756.8 508.9Q755.7 508.9 754.8 509.4Q754.0 509.9 753.5 510.7Q753.0 511.6 753.0 512.6L753.0 512.6L753.0 515.5Q753.0 516.8 753.5 517.7Q754.0 518.7 754.9 519.2Q755.8 519.7 757.0 519.7L757.0 519.7Q757.8 519.7 758.5 519.5Q759.1 519.2 759.6 518.8Q760.1 518.3 760.3 517.7L760.3 517.7L764.8 518.0Q764.5 519.6 763.4 520.8Q762.4 522.0 760.7 522.6Q759.1 523.3 756.9 523.3ZM782.6 510.5L782.6 510.5L778.2 510.7Q778.0 510.2 777.7 509.7Q777.3 509.3 776.7 509.0Q776.1 508.7 775.2 508.7L775.2 508.7Q774.1 508.7 773.3 509.2Q772.6 509.6 772.6 510.4L772.6 510.4Q772.6 511.1 773.1 511.5Q773.6 511.9 774.8 512.2L774.8 512.2L777.9 512.8Q780.5 513.3 781.7 514.5Q783.0 515.7 783.0 517.5L783.0 517.5Q783.0 519.3 782.0 520.6Q781.0 521.8 779.2 522.6Q777.5 523.3 775.2 523.3L775.2 523.3Q771.8 523.3 769.7 521.8Q767.6 520.4 767.3 517.9L767.3 517.9L772.1 517.6Q772.3 518.7 773.1 519.3Q773.9 519.8 775.2 519.8L775.2 519.8Q776.5 519.8 777.3 519.3Q778.1 518.8 778.1 518.0L778.1 518.0Q778.1 517.4 777.5 516.9Q777.0 516.5 775.8 516.3L775.8 516.3L772.8 515.7Q770.3 515.2 769.0 513.9Q767.8 512.7 767.8 510.7L767.8 510.7Q767.8 509.0 768.7 507.8Q769.6 506.6 771.3 505.9Q772.9 505.3 775.2 505.3L775.2 505.3Q778.5 505.3 780.4 506.7Q782.3 508.1 782.6 510.5Z "/></svg>