<svg width="1200" height="630" viewBox="0 0 1200 630" xmlns="http://www.w3.org/2000/svg"><defs><pattern id="satori_pattern_id_0" x="0" y="0" width="1" height="1" patternUnits="objectBoundingBox"><linearGradient id="satori_biid_0" x1="0" y1="0" x2="1" y2="0"><stop offset="0%" stop-color="#334d50"/><stop offset="100%" stop-color="#cbcaa5"/></linearGradient><rect x="0" y="0" width="1200" height="630" fill="url(#satori_biid_0)"/></pattern></defs><mask id="satori_om-id"><rect x="0" y="0" width="1200" height="630" fill="#fff"/></mask><rect x="0" y="0" width="1200" height="630" fill="#000"/><rect x="0" y="0" width="1200" height="630" fill="url(#satori_pattern_id_0)"/><mask id="satori_om-id-0"><rect x="0" y="178" width="1200" height="39" fill="#fff"/></mask><mask id="satori_om-id-0-0"><rect x="0" y="178" width="600" height="39" fill="#fff"/></mask><path fill="#000" d="M334.8 208.3L334.8 208.3Q332.1 208.3 330.2 207.2Q328.3 206.0 327.3 204.0Q326.2 201.9 326.2 199.3L326.2 199.3Q326.2 196.6 327.3 194.6Q328.3 192.6 330.2 191.4Q332.1 190.3 334.8 190.3L334.8 190.3Q337.1 190.3 338.8 191.1Q340.5 191.9 341.5 193.4Q342.5 194.9 342.6 197.0L342.6 197.0L338.0 197.0Q337.9 195.6 337.0 194.8Q336.2 194.0 334.9 194.0L334.9 194.0Q333.8 194.0 332.9 194.7Q332.1 195.3 331.6 196.4Q331.1 197.6 331.1 199.2L331.1 199.2Q331.1 200.9 331.6 202.1Q332.1 203.2 332.9 203.8Q333.8 204.5 334.9 204.5L334.9 204.5Q335.7 204.5 336.4 204.1Q337.0 203.8 337.5 203.1Q337.9 202.5 338.0 201.6L338.0 201.6L342.6 201.6Q342.5 203.6 341.5 205.1Q340.6 206.6 338.9 207.4Q337.1 208.3 334.8 208.3ZM350.6 208.0L345.7 208.0L345.7 190.5L350.4 190.5L350.4 193.5L350.6 193.5Q351.1 191.9 352.2 191.1Q353.3 190.2 354.8 190.2L354.8 190.2Q355.2 190.2 355.6 190.3Q356 190.3 356.3 190.4L356.3 190.4L356.3 194.7Q356.0 194.6 355.4 194.5Q354.8 194.5 354.3 194.5L354.3 194.5Q353.2 194.5 352.4 194.9Q351.5 195.4 351.1 196.2Q350.6 197.0 350.6 198.1L350.6 198.1L350.6 208.0ZM365.9 208.3L365.9 208.3Q363.3 208.3 361.3 207.2Q359.4 206.1 358.3 204.1Q357.3 202.1 357.3 199.3L357.3 199.3Q357.3 196.6 358.3 194.6Q359.4 192.5 361.3 191.4Q363.2 190.3 365.8 190.3L365.8 190.3Q367.5 190.3 369.0 190.8Q370.5 191.4 371.6 192.5Q372.7 193.6 373.3 195.2Q374.0 196.9 374.0 199.1L374.0 199.1L374.0 200.5L359.2 200.5L359.2 197.5L369.4 197.5Q369.4 196.4 368.9 195.6Q368.5 194.8 367.7 194.3Q366.9 193.9 365.8 193.9L365.8 193.9Q364.7 193.9 363.9 194.4Q363.0 194.9 362.6 195.7Q362.1 196.6 362.1 197.6L362.1 197.6L362.1 200.5Q362.1 201.8 362.6 202.7Q363.0 203.7 363.9 204.2Q364.8 204.7 366.0 204.7L366.0 204.7Q366.8 204.7 367.5 204.5Q368.2 204.2 368.6 203.8Q369.1 203.3 369.4 202.7L369.4 202.7L373.9 203.0Q373.5 204.6 372.5 205.8Q371.4 207.0 369.8 207.6Q368.1 208.3 365.9 208.3ZM382.1 208.3L382.1 208.3Q380.4 208.3 379.1 207.7Q377.8 207.1 377.1 206.0Q376.3 204.8 376.3 203.1L376.3 203.1Q376.3 201.6 376.8 200.6Q377.4 199.6 378.3 199.0Q379.2 198.4 380.4 198.1Q381.6 197.8 382.9 197.7L382.9 197.7Q384.4 197.5 385.3 197.4Q386.2 197.3 386.7 197.0Q387.1 196.7 387.1 196.1L387.1 196.1L387.1 196.1Q387.1 195.0 386.4 194.4Q385.7 193.8 384.5 193.8L384.5 193.8Q383.2 193.8 382.4 194.4Q381.6 195.0 381.4 195.8L381.4 195.8L376.9 195.5Q377.3 193.9 378.3 192.7Q379.3 191.5 380.8 190.9Q382.4 190.3 384.5 190.3L384.5 190.3Q386.0 190.3 387.3 190.6Q388.6 191.0 389.7 191.7Q390.7 192.4 391.3 193.5Q391.9 194.6 391.9 196.2L391.9 196.2L391.9 208.0L387.3 208.0L387.3 205.5L387.2 205.5Q386.8 206.3 386.1 207.0Q385.4 207.6 384.4 207.9Q383.4 208.3 382.1 208.3ZM383.5 204.9L383.5 204.9Q384.5 204.9 385.4 204.5Q386.2 204.1 386.6 203.4Q387.1 202.6 387.1 201.7L387.1 201.7L387.1 199.9Q386.9 200.0 386.5 200.1Q386.1 200.2 385.6 200.3Q385.1 200.4 384.6 200.5Q384.1 200.6 383.8 200.6L383.8 200.6Q382.9 200.8 382.3 201.0Q381.6 201.3 381.3 201.8Q380.9 202.2 380.9 202.9L380.9 202.9Q380.9 203.9 381.6 204.4Q382.4 204.9 383.5 204.9ZM394.5 190.5L405.0 190.5L405.0 194.1L394.5 194.1L394.5 190.5ZM396.8 203.2L396.8 186.3L401.7 186.3L401.7 202.6Q401.7 203.3 401.9 203.6Q402.1 204.0 402.5 204.1Q402.8 204.3 403.3 204.3L403.3 204.3Q403.7 204.3 404 204.2Q404.3 204.2 404.5 204.1L404.5 204.1L405.3 207.7Q404.9 207.8 404.3 208.0Q403.6 208.2 402.7 208.2L402.7 208.2Q400.9 208.3 399.6 207.7Q398.3 207.2 397.6 206.1Q396.8 204.9 396.8 203.2L396.8 203.2ZM415.9 208.3L415.9 208.3Q413.2 208.3 411.3 207.2Q409.3 206.1 408.3 204.1Q407.2 202.1 407.2 199.3L407.2 199.3Q407.2 196.6 408.3 194.6Q409.3 192.5 411.2 191.4Q413.1 190.3 415.7 190.3L415.7 190.3Q417.4 190.3 418.9 190.8Q420.4 191.4 421.5 192.5Q422.6 193.6 423.3 195.2Q423.9 196.9 423.9 199.1L423.9 199.1L423.9 200.5L409.2 200.5L409.2 197.5L419.3 197.5Q419.3 196.4 418.9 195.6Q418.4 194.8 417.6 194.3Q416.8 193.9 415.8 193.9L415.8 193.9Q414.7 193.9 413.8 194.4Q413.0 194.9 412.5 195.7Q412.0 196.6 412.0 197.6L412.0 197.6L412.0 200.5Q412.0 201.8 412.5 202.7Q413.0 203.7 413.9 204.2Q414.8 204.7 416.0 204.7L416.0 204.7Q416.8 204.7 417.4 204.5Q418.1 204.2 418.6 203.8Q419.1 203.3 419.3 202.7L419.3 202.7L423.8 203.0Q423.5 204.6 422.4 205.8Q421.4 207.0 419.7 207.6Q418.0 208.3 415.9 208.3Z M438.5 214.5L438.5 214.5Q437.5 214.5 436.7 214.4Q435.9 214.2 435.4 214.0L435.4 214.0L436.5 210.4Q437.4 210.6 438.1 210.7Q438.7 210.7 439.2 210.3Q439.8 210.0 440.1 209.2L440.1 209.2L440.4 208.5L434.1 190.5L439.2 190.5L442.8 203.3L443.0 203.3L446.6 190.5L451.8 190.5L445.0 209.8Q444.5 211.2 443.6 212.3Q442.8 213.3 441.5 213.9Q440.3 214.5 438.5 214.5ZM461.5 208.3L461.5 208.3Q458.9 208.3 457.0 207.2Q455.0 206.0 454.0 204.0Q452.9 202.0 452.9 199.3L452.9 199.3Q452.9 196.6 454.0 194.6Q455.0 192.5 457.0 191.4Q458.9 190.3 461.5 190.3L461.5 190.3Q464.2 190.3 466.1 191.4Q468.0 192.5 469.1 194.6Q470.1 196.6 470.1 199.3L470.1 199.3Q470.1 202.0 469.1 204.0Q468.0 206.0 466.1 207.2Q464.2 208.3 461.5 208.3ZM461.6 204.5L461.6 204.5Q462.8 204.5 463.6 203.9Q464.4 203.2 464.8 202.0Q465.2 200.8 465.2 199.3L465.2 199.3Q465.2 197.7 464.8 196.5Q464.4 195.3 463.6 194.7Q462.8 194.0 461.6 194.0L461.6 194.0Q460.3 194.0 459.5 194.7Q458.7 195.3 458.3 196.5Q457.9 197.7 457.9 199.3L457.9 199.3Q457.9 200.8 458.3 202.0Q458.7 203.2 459.5 203.9Q460.3 204.5 461.6 204.5ZM484.5 200.5L484.5 200.5L484.5 190.5L489.3 190.5L489.3 208.0L484.7 208.0L484.7 204.8L484.5 204.8Q483.9 206.3 482.5 207.2Q481.2 208.2 479.2 208.2L479.2 208.2Q477.4 208.2 476.1 207.4Q474.8 206.6 474.0 205.1Q473.3 203.7 473.3 201.6L473.3 201.6L473.3 190.5L478.1 190.5L478.1 200.7Q478.1 202.3 479.0 203.2Q479.8 204.1 481.1 204.1L481.1 204.1Q482.0 204.1 482.8 203.7Q483.5 203.3 484.0 202.5Q484.5 201.7 484.5 200.5ZM498.0 208.0L493.2 208.0L493.2 190.5L497.9 190.5L497.9 193.5L498.1 193.5Q498.5 191.9 499.7 191.1Q500.8 190.2 502.3 190.2L502.3 190.2Q502.6 190.2 503.0 190.3Q503.5 190.3 503.8 190.4L503.8 190.4L503.8 194.7Q503.4 194.6 502.8 194.5Q502.2 194.5 501.7 194.5L501.7 194.5Q500.7 194.5 499.8 194.9Q499.0 195.4 498.5 196.2Q498.0 197.0 498.0 198.1L498.0 198.1L498.0 208.0Z M522.1 214.9L522.1 214.9Q519.8 214.9 518.1 214.2Q516.4 213.6 515.4 212.5Q514.4 211.4 514.1 210.0L514.1 210.0L518.6 209.4Q518.8 209.9 519.3 210.4Q519.7 210.8 520.4 211.1Q521.2 211.4 522.2 211.4L522.2 211.4Q523.8 211.4 524.8 210.6Q525.9 209.8 525.9 208.1L525.9 208.1L525.9 204.9L525.7 204.9Q525.4 205.6 524.7 206.2Q524.1 206.9 523.1 207.3Q522.1 207.7 520.7 207.7L520.7 207.7Q518.7 207.7 517.1 206.8Q515.5 205.9 514.6 204.0Q513.6 202.1 513.6 199.2L513.6 199.2Q513.6 196.2 514.6 194.2Q515.5 192.2 517.2 191.3Q518.8 190.3 520.7 190.3L520.7 190.3Q522.1 190.3 523.1 190.8Q524.1 191.3 524.7 192.0Q525.3 192.7 525.7 193.4L525.7 193.4L525.9 193.4L525.9 190.5L530.7 190.5L530.7 208.1Q530.7 210.3 529.6 211.8Q528.5 213.3 526.6 214.1Q524.6 214.9 522.1 214.9ZM522.2 204.1L522.2 204.1Q523.4 204.1 524.2 203.5Q525.0 202.9 525.5 201.8Q525.9 200.7 525.9 199.2L525.9 199.2Q525.9 197.6 525.5 196.5Q525.0 195.4 524.2 194.7Q523.4 194.1 522.2 194.1L522.2 194.1Q521.0 194.1 520.2 194.8Q519.4 195.4 519.0 196.5Q518.6 197.7 518.6 199.2L518.6 199.2Q518.6 200.7 519.0 201.8Q519.4 202.9 520.2 203.5Q521.0 204.1 522.2 204.1ZM539.5 208.3L539.5 208.3Q537.8 208.3 536.5 207.7Q535.2 207.1 534.5 206.0Q533.7 204.8 533.7 203.1L533.7 203.1Q533.7 201.6 534.2 200.6Q534.8 199.6 535.7 199.0Q536.6 198.4 537.8 198.1Q539.0 197.8 540.3 197.7L540.3 197.7Q541.8 197.5 542.7 197.4Q543.6 197.3 544.1 197.0Q544.5 196.7 544.5 196.1L544.5 196.1L544.5 196.1Q544.5 195.0 543.8 194.4Q543.1 193.8 541.9 193.8L541.9 193.8Q540.6 193.8 539.8 194.4Q539.0 195.0 538.8 195.8L538.8 195.8L534.3 195.5Q534.7 193.9 535.7 192.7Q536.7 191.5 538.2 190.9Q539.8 190.3 541.9 190.3L541.9 190.3Q543.4 190.3 544.7 190.6Q546.0 191.0 547.1 191.7Q548.1 192.4 548.7 193.5Q549.3 194.6 549.3 196.2L549.3 196.2L549.3 208.0L544.7 208.0L544.7 205.5L544.6 205.5Q544.2 206.3 543.5 207.0Q542.8 207.6 541.8 207.9Q540.8 208.3 539.5 208.3ZM540.9 204.9L540.9 204.9Q542.0 204.9 542.8 204.5Q543.6 204.1 544.1 203.4Q544.5 202.6 544.5 201.7L544.5 201.7L544.5 199.9Q544.3 200.0 543.9 200.1Q543.5 200.2 543.0 200.3Q542.5 200.4 542.0 200.5Q541.6 200.6 541.2 200.6L541.2 200.6Q540.3 200.8 539.7 201.0Q539.0 201.3 538.7 201.8Q538.3 202.2 538.3 202.9L538.3 202.9Q538.3 203.9 539.1 204.4Q539.8 204.9 540.9 204.9ZM557.9 208.0L553.1 208.0L553.1 190.5L557.7 190.5L557.7 193.6L557.9 193.6Q558.5 192.0 559.7 191.2Q561.0 190.3 562.8 190.3L562.8 190.3Q564.6 190.3 565.8 191.2Q567.1 192.1 567.5 193.6L567.5 193.6L567.7 193.6Q568.2 192.1 569.6 191.2Q571.0 190.3 573.0 190.3L573.0 190.3Q575.4 190.3 576.9 191.8Q578.5 193.4 578.5 196.2L578.5 196.2L578.5 208.0L573.6 208.0L573.6 197.2Q573.6 195.7 572.9 195.0Q572.1 194.3 570.9 194.3L570.9 194.3Q569.6 194.3 568.9 195.1Q568.1 195.9 568.1 197.3L568.1 197.3L568.1 208.0L563.4 208.0L563.4 197.1Q563.4 195.8 562.7 195.0Q562.0 194.3 560.8 194.3L560.8 194.3Q560.0 194.3 559.3 194.7Q558.7 195.1 558.3 195.8Q557.9 196.5 557.9 197.5L557.9 197.5L557.9 208.0ZM590.2 208.3L590.2 208.3Q587.5 208.3 585.6 207.2Q583.7 206.1 582.6 204.1Q581.6 202.1 581.6 199.3L581.6 199.3Q581.6 196.6 582.6 194.6Q583.7 192.5 585.6 191.4Q587.5 190.3 590.0 190.3L590.0 190.3Q591.8 190.3 593.3 190.8Q594.8 191.4 595.9 192.5Q597.0 193.6 597.6 195.2Q598.2 196.9 598.2 199.1L598.2 199.1L598.2 200.5L583.5 200.5L583.5 197.5L593.7 197.5Q593.7 196.4 593.2 195.6Q592.8 194.8 592.0 194.3Q591.2 193.9 590.1 193.9L590.1 193.9Q589.0 193.9 588.2 194.4Q587.3 194.9 586.8 195.7Q586.4 196.6 586.4 197.6L586.4 197.6L586.4 200.5Q586.4 201.8 586.8 202.7Q587.3 203.7 588.2 204.2Q589.1 204.7 590.3 204.7L590.3 204.7Q591.1 204.7 591.8 204.5Q592.5 204.2 592.9 203.8Q593.4 203.3 593.7 202.7L593.7 202.7L598.1 203.0Q597.8 204.6 596.7 205.8Q595.7 207.0 594.0 207.6Q592.4 208.3 590.2 208.3Z "/><mask id="satori_om-id-0-1"><rect x="600" y="178" width="600" height="39" fill="#fff"/></mask><path fill="#fff" d="M625.5 208.0L620.4 208.0L615.6 190.5L620.5 190.5L623.2 202.2L623.4 202.2L626.2 190.5L631.0 190.5L633.9 202.2L634.0 202.2L636.7 190.5L641.6 190.5L636.8 208.0L631.7 208.0L628.7 197.0L628.5 197.0L625.5 208.0ZM649.0 208.0L644.1 208.0L644.1 190.5L649.0 190.5L649.0 208.0ZM646.6 188.2L646.6 188.2Q645.5 188.2 644.7 187.5Q644.0 186.8 644.0 185.8L644.0 185.8Q644.0 184.8 644.7 184.1Q645.5 183.3 646.6 183.3L646.6 183.3Q647.6 183.3 648.4 184.1Q649.2 184.8 649.2 185.8L649.2 185.8Q649.2 186.8 648.4 187.5Q647.6 188.2 646.6 188.2ZM651.6 190.5L662.1 190.5L662.1 194.1L651.6 194.1L651.6 190.5ZM654.0 203.2L654.0 186.3L658.8 186.3L658.8 202.6Q658.8 203.3 659.0 203.6Q659.3 204.0 659.6 204.1Q660.0 204.3 660.5 204.3L660.5 204.3Q660.8 204.3 661.2 204.2Q661.5 204.2 661.7 204.1L661.7 204.1L662.4 207.7Q662.1 207.8 661.4 208.0Q660.8 208.2 659.8 208.2L659.8 208.2Q658.1 208.3 656.8 207.7Q655.4 207.2 654.7 206.1Q654.0 204.9 654.0 203.2L654.0 203.2ZM670.5 197.9L670.5 197.9L670.5 208.0L665.6 208.0L665.6 184.7L670.3 184.7L670.3 193.6L670.5 193.6Q671.1 192.0 672.5 191.2Q673.8 190.3 675.8 190.3L675.8 190.3Q677.6 190.3 678.9 191.1Q680.3 191.8 681.1 193.3Q681.8 194.8 681.8 196.8L681.8 196.8L681.8 208.0L677.0 208.0L677.0 197.7Q677.0 196.1 676.1 195.2Q675.3 194.3 673.8 194.3L673.8 194.3Q672.9 194.3 672.1 194.7Q671.3 195.1 670.9 195.9Q670.5 196.7 670.5 197.9Z M697.6 208.3L697.6 208.3Q696.0 208.3 694.7 207.7Q693.4 207.1 692.6 206.0Q691.9 204.8 691.9 203.1L691.9 203.1Q691.9 201.6 692.4 200.6Q692.9 199.6 693.8 199.0Q694.8 198.4 695.9 198.1Q697.1 197.8 698.4 197.7L698.4 197.7Q699.9 197.5 700.9 197.4Q701.8 197.3 702.2 197.0Q702.6 196.7 702.6 196.1L702.6 196.1L702.6 196.1Q702.6 195.0 702.0 194.4Q701.3 193.8 700.0 193.8L700.0 193.8Q698.7 193.8 698.0 194.4Q697.2 195.0 696.9 195.8L696.9 195.8L692.5 195.5Q692.8 193.9 693.8 192.7Q694.8 191.5 696.4 190.9Q698.0 190.3 700.1 190.3L700.1 190.3Q701.5 190.3 702.9 190.6Q704.2 191.0 705.2 191.7Q706.3 192.4 706.9 193.5Q707.5 194.6 707.5 196.2L707.5 196.2L707.5 208.0L702.9 208.0L702.9 205.5L702.8 205.5Q702.3 206.3 701.6 207.0Q700.9 207.6 699.9 207.9Q698.9 208.3 697.6 208.3ZM699.0 204.9L699.0 204.9Q700.1 204.9 700.9 204.5Q701.7 204.1 702.2 203.4Q702.7 202.6 702.7 201.7L702.7 201.7L702.7 199.9Q702.4 200.0 702.1 200.1Q701.7 200.2 701.2 200.3Q700.7 200.4 700.2 200.5Q699.7 200.6 699.3 200.6L699.3 200.6Q698.5 200.8 697.8 201.0Q697.2 201.3 696.8 201.8Q696.5 202.2 696.5 202.9L696.5 202.9Q696.5 203.9 697.2 204.4Q697.9 204.9 699.0 204.9Z M726.5 214.9L726.5 214.9Q724.2 214.9 722.5 214.2Q720.8 213.6 719.8 212.5Q718.8 211.4 718.5 210.0L718.5 210.0L723.0 209.4Q723.2 209.9 723.7 210.4Q724.1 210.8 724.8 211.1Q725.6 211.4 726.6 211.4L726.6 211.4Q728.2 211.4 729.2 210.6Q730.3 209.8 730.3 208.1L730.3 208.1L730.3 204.9L730.1 204.9Q729.8 205.6 729.1 206.2Q728.5 206.9 727.5 207.3Q726.5 207.7 725.1 207.7L725.1 207.7Q723.1 207.7 721.5 206.8Q719.9 205.9 719.0 204.0Q718.0 202.1 718.0 199.2L718.0 199.2Q718.0 196.2 719.0 194.2Q719.9 192.2 721.6 191.3Q723.2 190.3 725.1 190.3L725.1 190.3Q726.5 190.3 727.5 190.8Q728.5 191.3 729.1 192.0Q729.7 192.7 730.1 193.4L730.1 193.4L730.3 193.4L730.3 190.5L735.1 190.5L735.1 208.1Q735.1 210.3 734.0 211.8Q732.9 213.3 730.9 214.1Q729.0 214.9 726.5 214.9ZM726.6 204.1L726.6 204.1Q727.8 204.1 728.6 203.5Q729.4 202.9 729.9 201.8Q730.3 200.7 730.3 199.2L730.3 199.2Q730.3 197.6 729.9 196.5Q729.4 195.4 728.6 194.7Q727.8 194.1 726.6 194.1L726.6 194.1Q725.4 194.1 724.6 194.8Q723.8 195.4 723.4 196.5Q723.0 197.7 723.0 199.2L723.0 199.2Q723.0 200.7 723.4 201.8Q723.8 202.9 724.6 203.5Q725.4 204.1 726.6 204.1ZM743.9 208.3L743.9 208.3Q742.2 208.3 740.9 207.7Q739.6 207.1 738.9 206.0Q738.1 204.8 738.1 203.1L738.1 203.1Q738.1 201.6 738.6 200.6Q739.2 199.6 740.1 199.0Q741.0 198.4 742.2 198.1Q743.4 197.8 744.7 197.7L744.7 197.7Q746.2 197.5 747.1 197.4Q748.0 197.3 748.5 197.0Q748.9 196.7 748.9 196.1L748.9 196.1L748.9 196.1Q748.9 195.0 748.2 194.4Q747.5 193.8 746.3 193.8L746.3 193.8Q745.0 193.8 744.2 194.4Q743.4 195.0 743.2 195.8L743.2 195.8L738.7 195.5Q739.1 193.9 740.1 192.7Q741.1 191.5 742.6 190.9Q744.2 190.3 746.3 190.3L746.3 190.3Q747.8 190.3 749.1 190.6Q750.4 191.0 751.5 191.7Q752.5 192.4 753.1 193.5Q753.7 194.6 753.7 196.2L753.7 196.2L753.7 208.0L749.1 208.0L749.1 205.5L749 205.5Q748.6 206.3 747.9 207.0Q747.2 207.6 746.2 207.9Q745.2 208.3 743.9 208.3ZM745.3 204.9L745.3 204.9Q746.4 204.9 747.2 204.5Q748.0 204.1 748.5 203.4Q748.9 202.6 748.9 201.7L748.9 201.7L748.9 199.9Q748.7 200.0 748.3 200.1Q747.9 200.2 747.4 200.3Q746.9 200.4 746.4 200.5Q746.0 200.6 745.6 200.6L745.6 200.6Q744.7 200.8 744.1 201.0Q743.4 201.3 743.1 201.8Q742.7 202.2 742.7 202.9L742.7 202.9Q742.7 203.9 743.4 204.4Q744.2 204.9 745.3 204.9ZM762.3 208.0L757.5 208.0L757.5 190.5L762.1 190.5L762.1 193.6L762.3 193.6Q762.9 192.0 764.1 191.2Q765.4 190.3 767.2 190.3L767.2 190.3Q769.0 190.3 770.2 191.2Q771.5 192.1 771.9 193.6L771.9 193.6L772.1 193.6Q772.6 192.1 774.0 191.2Q775.4 190.3 777.4 190.3L777.4 190.3Q779.8 190.3 781.3 191.8Q782.9 193.4 782.9 196.2L782.9 196.2L782.9 208.0L778.0 208.0L778.0 197.2Q778.0 195.7 777.3 195.0Q776.5 194.3 775.3 194.3L775.3 194.3Q774.0 194.3 773.3 195.1Q772.5 195.9 772.5 197.3L772.5 197.3L772.5 208.0L767.8 208.0L767.8 197.1Q767.8 195.8 767.1 195.0Q766.4 194.3 765.2 194.3L765.2 194.3Q764.4 194.3 763.7 194.7Q763.1 195.1 762.7 195.8Q762.3 196.5 762.3 197.5L762.3 197.5L762.3 208.0ZM794.6 208.3L794.6 208.3Q791.9 208.3 790.0 207.2Q788.1 206.1 787.0 204.1Q786.0 202.1 786.0 199.3L786.0 199.3Q786.0 196.6 787.0 194.6Q788.1 192.5 790.0 191.4Q791.9 190.3 794.4 190.3L794.4 190.3Q796.2 190.3 797.7 190.8Q799.1 191.4 800.3 192.5Q801.4 193.6 802.0 195.2Q802.6 196.9 802.6 199.1L802.6 199.1L802.6 200.5L787.9 200.5L787.9 197.5L798.1 197.5Q798.1 196.4 797.6 195.6Q797.2 194.8 796.4 194.3Q795.6 193.9 794.5 193.9L794.5 193.9Q793.4 193.9 792.6 194.4Q791.7 194.9 791.2 195.7Q790.8 196.6 790.8 197.6L790.8 197.6L790.8 200.5Q790.8 201.8 791.2 202.7Q791.7 203.7 792.6 204.2Q793.5 204.7 794.7 204.7L794.7 204.7Q795.5 204.7 796.2 204.5Q796.9 204.2 797.3 203.8Q797.8 203.3 798.1 202.7L798.1 202.7L802.5 203.0Q802.2 204.6 801.1 205.8Q800.1 207.0 798.4 207.6Q796.8 208.3 794.6 208.3Z M821.1 214.9L821.1 214.9Q818.7 214.9 817.1 214.2Q815.4 213.6 814.4 212.5Q813.4 211.4 813.1 210.0L813.1 210.0L817.6 209.4Q817.8 209.9 818.2 210.4Q818.7 210.8 819.4 211.1Q820.1 211.4 821.2 211.4L821.2 211.4Q822.8 211.4 823.8 210.6Q824.8 209.8 824.8 208.1L824.8 208.1L824.8 204.9L824.6 204.9Q824.3 205.6 823.7 206.2Q823.0 206.9 822.0 207.3Q821.0 207.7 819.6 207.7L819.6 207.7Q817.7 207.7 816.1 206.8Q814.5 205.9 813.5 204.0Q812.6 202.1 812.6 199.2L812.6 199.2Q812.6 196.2 813.5 194.2Q814.5 192.2 816.1 191.3Q817.7 190.3 819.6 190.3L819.6 190.3Q821.1 190.3 822.1 190.8Q823.1 191.3 823.7 192.0Q824.3 192.7 824.6 193.4L824.6 193.4L824.8 193.4L824.8 190.5L829.6 190.5L829.6 208.1Q829.6 210.3 828.5 211.8Q827.4 213.3 825.5 214.1Q823.6 214.9 821.1 214.9ZM821.2 204.1L821.2 204.1Q822.4 204.1 823.2 203.5Q824.0 202.9 824.4 201.8Q824.9 200.7 824.9 199.2L824.9 199.2Q824.9 197.6 824.4 196.5Q824.0 195.4 823.2 194.7Q822.4 194.1 821.2 194.1L821.2 194.1Q820.0 194.1 819.2 194.8Q818.4 195.4 817.9 196.5Q817.5 197.7 817.5 199.2L817.5 199.2Q817.5 200.7 817.9 201.8Q818.4 202.9 819.2 203.5Q820.0 204.1 821.2 204.1ZM838.5 208.3L838.5 208.3Q836.8 208.3 835.5 207.7Q834.2 207.1 833.4 206.0Q832.7 204.8 832.7 203.1L832.7 203.1Q832.7 201.6 833.2 200.6Q833.7 199.6 834.6 199.0Q835.6 198.4 836.7 198.1Q837.9 197.8 839.2 197.7L839.2 197.7Q840.7 197.5 841.7 197.4Q842.6 197.3 843.0 197.0Q843.4 196.7 843.4 196.1L843.4 196.1L843.4 196.1Q843.4 195.0 842.8 194.4Q842.1 193.8 840.9 193.8L840.9 193.8Q839.5 193.8 838.8 194.4Q838 195.0 837.8 195.8L837.8 195.8L833.3 195.5Q833.6 193.9 834.6 192.7Q835.6 191.5 837.2 190.9Q838.8 190.3 840.9 190.3L840.9 190.3Q842.3 190.3 843.7 190.6Q845 191.0 846.0 191.7Q847.1 192.4 847.7 193.5Q848.3 194.6 848.3 196.2L848.3 196.2L848.3 208.0L843.7 208.0L843.7 205.5L843.6 205.5Q843.1 206.3 842.4 207.0Q841.7 207.6 840.7 207.9Q839.8 208.3 838.5 208.3ZM839.8 204.9L839.8 204.9Q840.9 204.9 841.7 204.5Q842.5 204.1 843.0 203.4Q843.5 202.6 843.5 201.7L843.5 201.7L843.5 199.9Q843.3 200.0 842.9 200.1Q842.5 200.2 842.0 200.3Q841.5 200.4 841 200.5Q840.5 200.6 840.1 200.6L840.1 200.6Q839.3 200.8 838.6 201.0Q838.0 201.3 837.6 201.8Q837.3 202.2 837.3 202.9L837.3 202.9Q837.3 203.9 838.0 204.4Q838.7 204.9 839.8 204.9ZM859.9 208.3L859.9 208.3Q857.3 208.3 855.3 207.2Q853.4 206.0 852.4 204.0Q851.3 201.9 851.3 199.3L851.3 199.3Q851.3 196.6 852.4 194.6Q853.4 192.6 855.3 191.4Q857.3 190.3 859.9 190.3L859.9 190.3Q862.2 190.3 863.9 191.1Q865.6 191.9 866.6 193.4Q867.6 194.9 867.7 197.0L867.7 197.0L863.2 197.0Q863.0 195.6 862.1 194.8Q861.3 194.0 860.0 194.0L860.0 194.0Q858.9 194.0 858.0 194.7Q857.2 195.3 856.7 196.4Q856.3 197.6 856.3 199.2L856.3 199.2Q856.3 200.9 856.7 202.1Q857.2 203.2 858.0 203.8Q858.9 204.5 860.0 204.5L860.0 204.5Q860.8 204.5 861.5 204.1Q862.1 203.8 862.6 203.1Q863.0 202.5 863.2 201.6L863.2 201.6L867.7 201.6Q867.6 203.6 866.6 205.1Q865.7 206.6 864.0 207.4Q862.3 208.3 859.9 208.3ZM869.6 190.5L880.1 190.5L880.1 194.1L869.6 194.1L869.6 190.5ZM872 203.2L872 186.3L876.8 186.3L876.8 202.6Q876.8 203.3 877.0 203.6Q877.3 204.0 877.6 204.1Q878.0 204.3 878.5 204.3L878.5 204.3Q878.8 204.3 879.2 204.2Q879.5 204.2 879.7 204.1L879.7 204.1L880.4 207.7Q880.1 207.8 879.4 208.0Q878.8 208.2 877.8 208.2L877.8 208.2Q876.1 208.3 874.8 207.7Q873.4 207.2 872.7 206.1Q872.0 204.9 872 203.2L872 203.2ZM891.0 208.3L891.0 208.3Q888.3 208.3 886.4 207.2Q884.5 206.0 883.4 204.0Q882.4 202.0 882.4 199.3L882.4 199.3Q882.4 196.6 883.4 194.6Q884.5 192.5 886.4 191.4Q888.3 190.3 891.0 190.3L891.0 190.3Q893.6 190.3 895.6 191.4Q897.5 192.5 898.5 194.6Q899.6 196.6 899.6 199.3L899.6 199.3Q899.6 202.0 898.5 204.0Q897.5 206.0 895.6 207.2Q893.6 208.3 891.0 208.3ZM891 204.5L891 204.5Q892.2 204.5 893.0 203.9Q893.8 203.2 894.2 202.0Q894.6 200.8 894.6 199.3L894.6 199.3Q894.6 197.7 894.2 196.5Q893.8 195.3 893.0 194.7Q892.2 194.0 891 194.0L891 194.0Q889.8 194.0 889.0 194.7Q888.1 195.3 887.7 196.5Q887.3 197.7 887.3 199.3L887.3 199.3Q887.3 200.8 887.7 202.0Q888.1 203.2 889.0 203.9Q889.8 204.5 891 204.5ZM907.6 208.0L902.7 208.0L902.7 190.5L907.4 190.5L907.4 193.5L907.6 193.5Q908.1 191.9 909.2 191.1Q910.3 190.2 911.8 190.2L911.8 190.2Q912.2 190.2 912.6 190.3Q913 190.3 913.3 190.4L913.3 190.4L913.3 194.7Q913.0 194.6 912.4 194.5Q911.8 194.5 911.3 194.5L911.3 194.5Q910.2 194.5 909.4 194.9Q908.5 195.4 908.1 196.2Q907.6 197.0 907.6 198.1L907.6 198.1L907.6 208.0ZM919.3 214.5L919.3 214.5Q918.4 214.5 917.6 214.4Q916.8 214.2 916.3 214.0L916.3 214.0L917.4 210.4Q918.2 210.6 918.9 210.7Q919.6 210.7 920.1 210.3Q920.6 210.0 920.9 209.2L920.9 209.2L921.2 208.5L915.0 190.5L920.1 190.5L923.7 203.3L923.9 203.3L927.5 190.5L932.6 190.5L925.8 209.8Q925.4 211.2 924.5 212.3Q923.7 213.3 922.4 213.9Q921.1 214.5 919.3 214.5Z "/><mask id="satori_om-id-1"><rect x="0" y="237" width="1200" height="39" fill="#fff"/></mask><mask id="satori_om-id-1-0"><rect x="0" y="237" width="600" height="39" fill="#fff"/></mask><path fill="#000" d="M272.8 267.3L272.8 267.3Q270.1 267.3 268.2 266.2Q266.3 265.0 265.3 263.0Q264.2 260.9 264.2 258.3L264.2 258.3Q264.2 255.6 265.3 253.6Q266.3 251.6 268.2 250.4Q270.1 249.3 272.8 249.3L272.8 249.3Q275.1 249.3 276.8 250.1Q278.5 250.9 279.5 252.4Q280.5 253.9 280.6 256.0L280.6 256.0L276.0 256.0Q275.9 254.6 275.0 253.8Q274.2 253.0 272.9 253.0L272.9 253.0Q271.8 253.0 270.9 253.7Q270.1 254.3 269.6 255.4Q269.1 256.6 269.1 258.2L269.1 258.2Q269.1 259.9 269.6 261.1Q270.1 262.2 270.9 262.8Q271.8 263.5 272.9 263.5L272.9 263.5Q273.7 263.5 274.4 263.1Q275.0 262.8 275.5 262.1Q275.9 261.5 276.0 260.6L276.0 260.6L280.6 260.6Q280.5 262.6 279.5 264.1Q278.6 265.6 276.9 266.4Q275.1 267.3 272.8 267.3ZM288.6 256.9L288.6 256.9L288.6 267.0L283.7 267.0L283.7 243.7L288.4 243.7L288.4 252.6L288.6 252.6Q289.2 251.0 290.5 250.2Q291.9 249.3 293.9 249.3L293.9 249.3Q295.7 249.3 297.0 250.1Q298.4 250.8 299.1 252.3Q299.9 253.8 299.9 255.8L299.9 255.8L299.9 267.0L295.0 267.0L295.0 256.7Q295.1 255.1 294.2 254.2Q293.4 253.3 291.9 253.3L291.9 253.3Q290.9 253.3 290.2 253.7Q289.4 254.1 289.0 254.9Q288.6 255.7 288.6 256.9ZM311.6 267.3L311.6 267.3Q308.9 267.3 307.0 266.2Q305.1 265.0 304.0 263.0Q303.0 261.0 303.0 258.3L303.0 258.3Q303.0 255.6 304.0 253.6Q305.1 251.5 307.0 250.4Q308.9 249.3 311.6 249.3L311.6 249.3Q314.2 249.3 316.2 250.4Q318.1 251.5 319.1 253.6Q320.2 255.6 320.2 258.3L320.2 258.3Q320.2 261.0 319.1 263.0Q318.1 265.0 316.2 266.2Q314.2 267.3 311.6 267.3ZM311.6 263.5L311.6 263.5Q312.8 263.5 313.6 262.9Q314.4 262.2 314.8 261.0Q315.3 259.8 315.3 258.3L315.3 258.3Q315.3 256.7 314.8 255.5Q314.4 254.3 313.6 253.7Q312.8 253.0 311.6 253.0L311.6 253.0Q310.4 253.0 309.6 253.7Q308.8 254.3 308.3 255.5Q307.9 256.7 307.9 258.3L307.9 258.3Q307.9 259.8 308.3 261.0Q308.8 262.2 309.6 262.9Q310.4 263.5 311.6 263.5ZM331.2 267.3L331.2 267.3Q328.6 267.3 326.7 266.2Q324.7 265.0 323.7 263.0Q322.6 261.0 322.6 258.3L322.6 258.3Q322.6 255.6 323.7 253.6Q324.7 251.5 326.7 250.4Q328.6 249.3 331.2 249.3L331.2 249.3Q333.9 249.3 335.8 250.4Q337.7 251.5 338.8 253.6Q339.8 255.6 339.8 258.3L339.8 258.3Q339.8 261.0 338.8 263.0Q337.7 265.0 335.8 266.2Q333.9 267.3 331.2 267.3ZM331.3 263.5L331.3 263.5Q332.5 263.5 333.3 262.9Q334.1 262.2 334.5 261.0Q334.9 259.8 334.9 258.3L334.9 258.3Q334.9 256.7 334.5 255.5Q334.1 254.3 333.3 253.7Q332.5 253.0 331.3 253.0L331.3 253.0Q330.0 253.0 329.2 253.7Q328.4 254.3 328.0 255.5Q327.6 256.7 327.6 258.3L327.6 258.3Q327.6 259.8 328.0 261.0Q328.4 262.2 329.2 262.9Q330.0 263.5 331.3 263.5ZM357.5 254.5L357.5 254.5L353.1 254.7Q353.0 254.2 352.6 253.7Q352.2 253.3 351.6 253.0Q351.0 252.7 350.1 252.7L350.1 252.7Q349.0 252.7 348.3 253.2Q347.5 253.6 347.5 254.4L347.5 254.4Q347.5 255.1 348.0 255.5Q348.5 255.9 349.7 256.2L349.7 256.2L352.9 256.8Q355.4 257.3 356.6 258.5Q357.9 259.7 357.9 261.5L357.9 261.5Q357.9 263.3 356.9 264.6Q355.9 265.8 354.1 266.6Q352.4 267.3 350.1 267.3L350.1 267.3Q346.7 267.3 344.6 265.8Q342.6 264.4 342.2 261.9L342.2 261.9L347.0 261.6Q347.2 262.7 348.0 263.3Q348.8 263.8 350.1 263.8L350.1 263.8Q351.4 263.8 352.2 263.3Q353.0 262.8 353.0 262.0L353.0 262.0Q353.0 261.4 352.4 260.9Q351.9 260.5 350.7 260.3L350.7 260.3L347.7 259.7Q345.2 259.2 343.9 257.9Q342.7 256.7 342.7 254.7L342.7 254.7Q342.7 253.0 343.6 251.8Q344.5 250.6 346.2 249.9Q347.8 249.3 350.1 249.3L350.1 249.3Q353.4 249.3 355.3 250.7Q357.2 252.1 357.5 254.5ZM368.9 267.3L368.9 267.3Q366.2 267.3 364.3 266.2Q362.3 265.1 361.3 263.1Q360.3 261.1 360.3 258.3L360.3 258.3Q360.3 255.6 361.3 253.6Q362.3 251.5 364.2 250.4Q366.1 249.3 368.7 249.3L368.7 249.3Q370.4 249.3 371.9 249.8Q373.4 250.4 374.6 251.5Q375.7 252.6 376.3 254.2Q376.9 255.9 376.9 258.1L376.9 258.1L376.9 259.5L362.2 259.5L362.2 256.5L372.4 256.5Q372.4 255.4 371.9 254.6Q371.5 253.8 370.7 253.3Q369.9 252.9 368.8 252.9L368.8 252.9Q367.7 252.9 366.8 253.4Q366.0 253.9 365.5 254.7Q365.0 255.6 365.0 256.6L365.0 256.6L365.0 259.5Q365.0 260.8 365.5 261.7Q366.0 262.7 366.9 263.2Q367.8 263.7 369.0 263.7L369.0 263.7Q369.8 263.7 370.5 263.5Q371.1 263.2 371.6 262.8Q372.1 262.3 372.3 261.7L372.3 261.7L376.8 262.0Q376.5 263.6 375.4 264.8Q374.4 266.0 372.7 266.6Q371.1 267.3 368.9 267.3Z M390.5 273.5L390.5 273.5Q389.6 273.5 388.8 273.4Q388.0 273.2 387.4 273.0L387.4 273.0L388.5 269.4Q389.4 269.6 390.1 269.7Q390.8 269.7 391.3 269.3Q391.8 269.0 392.1 268.2L392.1 268.2L392.4 267.5L386.1 249.5L391.2 249.5L394.8 262.3L395 262.3L398.6 249.5L403.8 249.5L397.0 268.8Q396.5 270.2 395.7 271.3Q394.8 272.3 393.6 272.9Q392.3 273.5 390.5 273.5ZM413.6 267.3L413.6 267.3Q410.9 267.3 409.0 266.2Q407.1 265.0 406.0 263.0Q405.0 261.0 405.0 258.3L405.0 258.3Q405.0 255.6 406.0 253.6Q407.1 251.5 409.0 250.4Q410.9 249.3 413.6 249.3L413.6 249.3Q416.2 249.3 418.1 250.4Q420.1 251.5 421.1 253.6Q422.1 255.6 422.1 258.3L422.1 258.3Q422.1 261.0 421.1 263.0Q420.1 265.0 418.1 266.2Q416.2 267.3 413.6 267.3ZM413.6 263.5L413.6 263.5Q414.8 263.5 415.6 262.9Q416.4 262.2 416.8 261.0Q417.2 259.8 417.2 258.3L417.2 258.3Q417.2 256.7 416.8 255.5Q416.4 254.3 415.6 253.7Q414.8 253.0 413.6 253.0L413.6 253.0Q412.4 253.0 411.5 253.7Q410.7 254.3 410.3 255.5Q409.9 256.7 409.9 258.3L409.9 258.3Q409.9 259.8 410.3 261.0Q410.7 262.2 411.5 262.9Q412.4 263.5 413.6 263.5ZM436.5 259.5L436.5 259.5L436.5 249.5L441.3 249.5L441.3 267.0L436.7 267.0L436.7 263.8L436.5 263.8Q435.9 265.3 434.6 266.2Q433.2 267.2 431.2 267.2L431.2 267.2Q429.5 267.2 428.1 266.4Q426.8 265.6 426.1 264.1Q425.3 262.7 425.3 260.6L425.3 260.6L425.3 249.5L430.1 249.5L430.1 259.7Q430.2 261.3 431.0 262.2Q431.8 263.1 433.2 263.1L433.2 263.1Q434.0 263.1 434.8 262.7Q435.6 262.3 436.0 261.5Q436.5 260.7 436.5 259.5ZM450.0 267.0L445.2 267.0L445.2 249.5L449.9 249.5L449.9 252.5L450.1 252.5Q450.6 250.9 451.7 250.1Q452.8 249.2 454.3 249.2L454.3 249.2Q454.6 249.2 455.1 249.3Q455.5 249.3 455.8 249.4L455.8 249.4L455.8 253.7Q455.5 253.6 454.9 253.5Q454.3 253.5 453.8 253.5L453.8 253.5Q452.7 253.5 451.8 253.9Q451.0 254.4 450.5 255.2Q450.0 256.0 450.0 257.1L450.0 257.1L450.0 267.0Z M471.1 267.0L466.3 267.0L466.3 249.5L470.9 249.5L470.9 252.6L471.1 252.6Q471.6 251.0 472.9 250.2Q474.2 249.3 476.0 249.3L476.0 249.3Q477.8 249.3 479.0 250.2Q480.3 251.1 480.7 252.6L480.7 252.6L480.9 252.6Q481.4 251.1 482.8 250.2Q484.2 249.3 486.1 249.3L486.1 249.3Q488.6 249.3 490.1 250.8Q491.6 252.4 491.6 255.2L491.6 255.2L491.6 267.0L486.8 267.0L486.8 256.2Q486.8 254.7 486.0 254.0Q485.3 253.3 484.1 253.3L484.1 253.3Q482.8 253.3 482.1 254.1Q481.3 254.9 481.3 256.3L481.3 256.3L481.3 267.0L476.6 267.0L476.6 256.1Q476.6 254.8 475.9 254.0Q475.2 253.3 474.0 253.3L474.0 253.3Q473.2 253.3 472.5 253.7Q471.9 254.1 471.5 254.8Q471.1 255.5 471.1 256.5L471.1 256.5L471.1 267.0ZM503.4 267.3L503.4 267.3Q500.7 267.3 498.8 266.2Q496.9 265.0 495.8 263.0Q494.8 261.0 494.8 258.3L494.8 258.3Q494.8 255.6 495.8 253.6Q496.9 251.5 498.8 250.4Q500.7 249.3 503.4 249.3L503.4 249.3Q506 249.3 507.9 250.4Q509.9 251.5 510.9 253.6Q511.9 255.6 511.9 258.3L511.9 258.3Q511.9 261.0 510.9 263.0Q509.9 265.0 507.9 266.2Q506 267.3 503.4 267.3ZM503.4 263.5L503.4 263.5Q504.6 263.5 505.4 262.9Q506.2 262.2 506.6 261.0Q507.0 259.8 507.0 258.3L507.0 258.3Q507.0 256.7 506.6 255.5Q506.2 254.3 505.4 253.7Q504.6 253.0 503.4 253.0L503.4 253.0Q502.2 253.0 501.3 253.7Q500.5 254.3 500.1 255.5Q499.7 256.7 499.7 258.3L499.7 258.3Q499.7 259.8 500.1 261.0Q500.5 262.2 501.3 262.9Q502.2 263.5 503.4 263.5ZM521.5 267.2L521.5 267.2Q519.5 267.2 517.9 266.2Q516.3 265.2 515.4 263.2Q514.5 261.2 514.5 258.2L514.5 258.2Q514.5 255.2 515.4 253.3Q516.4 251.3 518.0 250.3Q519.6 249.3 521.5 249.3L521.5 249.3Q523.0 249.3 524.0 249.8Q525.0 250.3 525.6 251.0Q526.2 251.7 526.5 252.4L526.5 252.4L526.6 252.4L526.6 243.7L531.5 243.7L531.5 267.0L526.7 267.0L526.7 264.2L526.5 264.2Q526.1 264.9 525.5 265.6Q524.9 266.3 523.9 266.8Q522.9 267.2 521.5 267.2ZM523.1 263.4L523.1 263.4Q524.2 263.4 525.1 262.7Q525.9 262.1 526.3 260.9Q526.7 259.8 526.7 258.2L526.7 258.2Q526.7 256.7 526.3 255.5Q525.9 254.4 525.1 253.7Q524.2 253.1 523.1 253.1L523.1 253.1Q521.9 253.1 521.1 253.8Q520.2 254.4 519.8 255.6Q519.4 256.7 519.4 258.2L519.4 258.2Q519.4 259.7 519.8 260.9Q520.3 262.1 521.1 262.7Q521.9 263.4 523.1 263.4ZM546.6 259.5L546.6 259.5L546.6 249.5L551.5 249.5L551.5 267.0L546.8 267.0L546.8 263.8L546.6 263.8Q546.0 265.3 544.7 266.2Q543.3 267.2 541.3 267.2L541.3 267.2Q539.6 267.2 538.3 266.4Q536.9 265.6 536.2 264.1Q535.4 262.7 535.4 260.6L535.4 260.6L535.4 249.5L540.3 249.5L540.3 259.7Q540.3 261.3 541.1 262.2Q541.9 263.1 543.3 263.1L543.3 263.1Q544.2 263.1 544.9 262.7Q545.7 262.3 546.2 261.5Q546.6 260.7 546.6 259.5ZM555.3 243.7L560.2 243.7L560.2 267.0L555.3 267.0L555.3 243.7ZM572.0 267.3L572.0 267.3Q569.3 267.3 567.4 266.2Q565.4 265.1 564.4 263.1Q563.3 261.1 563.3 258.3L563.3 258.3Q563.3 255.6 564.4 253.6Q565.4 251.5 567.3 250.4Q569.2 249.3 571.8 249.3L571.8 249.3Q573.5 249.3 575.0 249.8Q576.5 250.4 577.6 251.5Q578.8 252.6 579.4 254.2Q580.0 255.9 580.0 258.1L580.0 258.1L580.0 259.5L565.3 259.5L565.3 256.5L575.4 256.5Q575.4 255.4 575.0 254.6Q574.5 253.8 573.7 253.3Q572.9 252.9 571.9 252.9L571.9 252.9Q570.8 252.9 569.9 253.4Q569.1 253.9 568.6 254.7Q568.1 255.6 568.1 256.6L568.1 256.6L568.1 259.5Q568.1 260.8 568.6 261.7Q569.1 262.7 570.0 263.2Q570.9 263.7 572.1 263.7L572.1 263.7Q572.9 263.7 573.5 263.5Q574.2 263.2 574.7 262.8Q575.2 262.3 575.4 261.7L575.4 261.7L579.9 262.0Q579.6 263.6 578.5 264.8Q577.5 266.0 575.8 266.6Q574.1 267.3 572.0 267.3ZM597.7 254.5L597.7 254.5L593.3 254.7Q593.1 254.2 592.8 253.7Q592.4 253.3 591.8 253.0Q591.2 252.7 590.3 252.7L590.3 252.7Q589.2 252.7 588.4 253.2Q587.7 253.6 587.7 254.4L587.7 254.4Q587.7 255.1 588.2 255.5Q588.7 255.9 589.9 256.2L589.9 256.2L593.0 256.8Q595.6 257.3 596.8 258.5Q598.1 259.7 598.1 261.5L598.1 261.5Q598.1 263.3 597.1 264.6Q596.1 265.8 594.3 266.6Q592.6 267.3 590.3 267.3L590.3 267.3Q586.8 267.3 584.8 265.8Q582.7 264.4 582.4 261.9L582.4 261.9L587.1 261.6Q587.4 262.7 588.2 263.3Q589.0 263.8 590.3 263.8L590.3 263.8Q591.6 263.8 592.4 263.3Q593.1 262.8 593.2 262.0L593.2 262.0Q593.1 261.4 592.6 260.9Q592.1 260.5 590.9 260.3L590.9 260.3L587.9 259.7Q585.3 259.2 584.1 257.9Q582.9 256.7 582.9 254.7L582.9 254.7Q582.9 253.0 583.8 251.8Q584.7 250.6 586.3 249.9Q588.0 249.3 590.3 249.3L590.3 249.3Q593.6 249.3 595.5 250.7Q597.4 252.1 597.7 254.5Z "/><mask id="satori_om-id-1-1"><rect x="600" y="237" width="600" height="39" fill="#fff"/></mask><path fill="#fff" d="M615.5 249.5L626.3 249.5L626.3 253.1L615.5 253.1L615.5 249.5ZM622.8 267.0L618.0 267.0L618.0 248.2Q618.0 246.3 618.8 245.1Q619.5 243.8 620.8 243.2Q622.1 242.6 623.7 242.6L623.7 242.6Q624.9 242.6 625.8 242.8Q626.7 242.9 627.2 243.1L627.2 243.1L626.3 246.7Q626.0 246.6 625.6 246.5Q625.2 246.5 624.8 246.5L624.8 246.5Q623.7 246.5 623.3 246.9Q622.8 247.4 622.8 248.3L622.8 248.3L622.8 267.0ZM634.1 267.0L629.3 267.0L629.3 249.5L634.0 249.5L634.0 252.5L634.1 252.5Q634.6 250.9 635.8 250.1Q636.9 249.2 638.3 249.2L638.3 249.2Q638.7 249.2 639.1 249.3Q639.5 249.3 639.9 249.4L639.9 249.4L639.9 253.7Q639.5 253.6 638.9 253.5Q638.3 253.5 637.8 253.5L637.8 253.5Q636.8 253.5 635.9 253.9Q635.1 254.4 634.6 255.2Q634.1 256.0 634.1 257.1L634.1 257.1L634.1 267.0ZM649.4 267.3L649.4 267.3Q646.8 267.3 644.8 266.2Q642.9 265.0 641.9 263.0Q640.8 261.0 640.8 258.3L640.8 258.3Q640.8 255.6 641.9 253.6Q642.9 251.5 644.8 250.4Q646.8 249.3 649.4 249.3L649.4 249.3Q652.1 249.3 654.0 250.4Q655.9 251.5 657.0 253.6Q658.0 255.6 658.0 258.3L658.0 258.3Q658.0 261.0 657.0 263.0Q655.9 265.0 654.0 266.2Q652.1 267.3 649.4 267.3ZM649.4 263.5L649.4 263.5Q650.6 263.5 651.5 262.9Q652.3 262.2 652.7 261.0Q653.1 259.8 653.1 258.3L653.1 258.3Q653.1 256.7 652.7 255.5Q652.3 254.3 651.5 253.7Q650.6 253.0 649.4 253.0L649.4 253.0Q648.2 253.0 647.4 253.7Q646.6 254.3 646.2 255.5Q645.8 256.7 645.8 258.3L645.8 258.3Q645.8 259.8 646.2 261.0Q646.6 262.2 647.4 262.9Q648.2 263.5 649.4 263.5ZM666.0 267.0L661.2 267.0L661.2 249.5L665.8 249.5L665.8 252.6L666.0 252.6Q666.5 251.0 667.8 250.2Q669.1 249.3 670.9 249.3L670.9 249.3Q672.6 249.3 673.9 250.2Q675.2 251.1 675.6 252.6L675.6 252.6L675.8 252.6Q676.3 251.1 677.7 250.2Q679.1 249.3 681.0 249.3L681.0 249.3Q683.5 249.3 685.0 250.8Q686.5 252.4 686.5 255.2L686.5 255.2L686.5 267.0L681.7 267.0L681.7 256.2Q681.7 254.7 680.9 254.0Q680.2 253.3 679 253.3L679 253.3Q677.7 253.3 676.9 254.1Q676.2 254.9 676.2 256.3L676.2 256.3L676.2 267.0L671.5 267.0L671.5 256.1Q671.5 254.8 670.8 254.0Q670.0 253.3 668.9 253.3L668.9 253.3Q668.0 253.3 667.4 253.7Q666.8 254.1 666.4 254.8Q666.0 255.5 666.0 256.5L666.0 256.5L666.0 267.0Z M697.4 249.5L707.9 249.5L707.9 253.1L697.4 253.1L697.4 249.5ZM699.8 262.2L699.8 245.3L704.6 245.3L704.6 261.6Q704.6 262.3 704.8 262.6Q705 263.0 705.4 263.1Q705.7 263.3 706.2 263.3L706.2 263.3Q706.6 263.3 706.9 263.2Q707.3 263.2 707.4 263.1L707.4 263.1L708.2 266.7Q707.8 266.8 707.2 267.0Q706.5 267.2 705.6 267.2L705.6 267.2Q703.8 267.3 702.5 266.7Q701.2 266.2 700.5 265.1Q699.7 263.9 699.8 262.2L699.8 262.2ZM716.2 256.9L716.2 256.9L716.2 267.0L711.4 267.0L711.4 243.7L716.1 243.7L716.1 252.6L716.3 252.6Q716.9 251.0 718.2 250.2Q719.5 249.3 721.5 249.3L721.5 249.3Q723.3 249.3 724.7 250.1Q726.0 250.8 726.8 252.3Q727.6 253.8 727.5 255.8L727.5 255.8L727.5 267.0L722.7 267.0L722.7 256.7Q722.7 255.1 721.9 254.2Q721.1 253.3 719.6 253.3L719.6 253.3Q718.6 253.3 717.8 253.7Q717.1 254.1 716.7 254.9Q716.2 255.7 716.2 256.9ZM739.3 267.3L739.3 267.3Q736.6 267.3 734.7 266.2Q732.8 265.1 731.7 263.1Q730.7 261.1 730.7 258.3L730.7 258.3Q730.7 255.6 731.7 253.6Q732.8 251.5 734.7 250.4Q736.6 249.3 739.1 249.3L739.1 249.3Q740.9 249.3 742.3 249.8Q743.8 250.4 745.0 251.5Q746.1 252.6 746.7 254.2Q747.3 255.9 747.3 258.1L747.3 258.1L747.3 259.5L732.6 259.5L732.6 256.5L742.8 256.5Q742.8 255.4 742.3 254.6Q741.9 253.8 741.1 253.3Q740.3 252.9 739.2 252.9L739.2 252.9Q738.1 252.9 737.3 253.4Q736.4 253.9 735.9 254.7Q735.5 255.6 735.4 256.6L735.4 256.6L735.4 259.5Q735.4 260.8 735.9 261.7Q736.4 262.7 737.3 263.2Q738.2 263.7 739.4 263.7L739.4 263.7Q740.2 263.7 740.9 263.5Q741.5 263.2 742.0 262.8Q742.5 262.3 742.8 261.7L742.8 261.7L747.2 262.0Q746.9 263.6 745.8 264.8Q744.8 266.0 743.1 266.6Q741.5 267.3 739.3 267.3Z M762.4 267.0L757.5 267.0L757.5 249.5L762.2 249.5L762.2 252.5L762.4 252.5Q762.9 250.9 764.0 250.1Q765.1 249.2 766.6 249.2L766.6 249.2Q767.0 249.2 767.4 249.3Q767.8 249.3 768.1 249.4L768.1 249.4L768.1 253.7Q767.8 253.6 767.2 253.5Q766.6 253.5 766.1 253.5L766.1 253.5Q765.0 253.5 764.2 253.9Q763.4 254.4 762.9 255.2Q762.4 256.0 762.4 257.1L762.4 257.1L762.4 267.0ZM777.8 267.3L777.8 267.3Q775.1 267.3 773.1 266.2Q771.2 265.1 770.1 263.1Q769.1 261.1 769.1 258.3L769.1 258.3Q769.1 255.6 770.1 253.6Q771.2 251.5 773.1 250.4Q775 249.3 777.6 249.3L777.6 249.3Q779.3 249.3 780.8 249.8Q782.3 250.4 783.4 251.5Q784.5 252.6 785.1 254.2Q785.8 255.9 785.8 258.1L785.8 258.1L785.8 259.5L771.0 259.5L771.0 256.5L781.2 256.5Q781.2 255.4 780.8 254.6Q780.3 253.8 779.5 253.3Q778.7 252.9 777.6 252.9L777.6 252.9Q776.5 252.9 775.7 253.4Q774.9 253.9 774.4 254.7Q773.9 255.6 773.9 256.6L773.9 256.6L773.9 259.5Q773.9 260.8 774.4 261.7Q774.9 262.7 775.7 263.2Q776.6 263.7 777.8 263.7L777.8 263.7Q778.6 263.7 779.3 263.5Q780.0 263.2 780.5 262.8Q780.9 262.3 781.2 261.7L781.2 261.7L785.7 262.0Q785.3 263.6 784.3 264.8Q783.2 266.0 781.6 266.6Q779.9 267.3 777.8 267.3ZM796.8 273.9L796.8 273.9Q794.4 273.9 792.8 273.2Q791.1 272.6 790.1 271.5Q789.1 270.4 788.8 269.0L788.8 269.0L793.3 268.4Q793.5 268.9 793.9 269.4Q794.4 269.8 795.1 270.1Q795.9 270.4 796.9 270.4L796.9 270.4Q798.5 270.4 799.5 269.6Q800.5 268.8 800.5 267.1L800.5 267.1L800.5 263.9L800.3 263.9Q800.0 264.6 799.4 265.2Q798.8 265.9 797.8 266.3Q796.8 266.7 795.4 266.7L795.4 266.7Q793.4 266.7 791.8 265.8Q790.2 264.9 789.2 263.0Q788.3 261.1 788.3 258.2L788.3 258.2Q788.3 255.2 789.3 253.2Q790.2 251.2 791.8 250.3Q793.4 249.3 795.4 249.3L795.4 249.3Q796.8 249.3 797.8 249.8Q798.8 250.3 799.4 251.0Q800.0 251.7 800.3 252.4L800.3 252.4L800.5 252.4L800.5 249.5L805.3 249.5L805.3 267.1Q805.3 269.3 804.2 270.8Q803.1 272.3 801.2 273.1Q799.3 273.9 796.8 273.9ZM796.9 263.1L796.9 263.1Q798.1 263.1 798.9 262.5Q799.7 261.9 800.1 260.8Q800.6 259.7 800.6 258.2L800.6 258.2Q800.6 256.6 800.1 255.5Q799.7 254.4 798.9 253.7Q798.1 253.1 796.9 253.1L796.9 253.1Q795.7 253.1 794.9 253.8Q794.1 254.4 793.6 255.5Q793.2 256.7 793.2 258.2L793.2 258.2Q793.2 259.7 793.7 260.8Q794.1 261.9 794.9 262.5Q795.7 263.1 796.9 263.1ZM814.0 267.0L809.2 267.0L809.2 249.5L814.0 249.5L814.0 267.0ZM811.6 247.2L811.6 247.2Q810.5 247.2 809.8 246.5Q809.0 245.8 809.0 244.8L809.0 244.8Q809.0 243.8 809.8 243.1Q810.5 242.3 811.6 242.3L811.6 242.3Q812.7 242.3 813.5 243.1Q814.2 243.8 814.2 244.8L814.2 244.8Q814.2 245.8 813.5 246.5Q812.7 247.2 811.6 247.2ZM832.4 254.5L832.4 254.5L828.0 254.7Q827.9 254.2 827.5 253.7Q827.1 253.3 826.5 253.0Q825.9 252.7 825.1 252.7L825.1 252.7Q823.9 252.7 823.2 253.2Q822.4 253.6 822.4 254.4L822.4 254.4Q822.4 255.1 822.9 255.5Q823.4 255.9 824.6 256.2L824.6 256.2L827.8 256.8Q830.3 257.3 831.6 258.5Q832.8 259.7 832.8 261.5L832.8 261.5Q832.8 263.3 831.8 264.6Q830.8 265.8 829.1 266.6Q827.3 267.3 825.0 267.3L825.0 267.3Q821.6 267.3 819.5 265.8Q817.5 264.4 817.1 261.9L817.1 261.9L821.9 261.6Q822.1 262.7 822.9 263.3Q823.8 263.8 825.1 263.8L825.1 263.8Q826.3 263.8 827.1 263.3Q827.9 262.8 827.9 262.0L827.9 262.0Q827.9 261.4 827.3 260.9Q826.8 260.5 825.7 260.3L825.7 260.3L822.6 259.7Q820.1 259.2 818.8 257.9Q817.6 256.7 817.6 254.7L817.6 254.7Q817.6 253.0 818.5 251.8Q819.4 250.6 821.1 249.9Q822.8 249.3 825.0 249.3L825.0 249.3Q828.3 249.3 830.2 250.7Q832.1 252.1 832.4 254.5ZM834.6 249.5L845.2 249.5L845.2 253.1L834.6 253.1L834.6 249.5ZM837.0 262.2L837.0 245.3L841.9 245.3L841.9 261.6Q841.9 262.3 842.1 262.6Q842.3 263.0 842.7 263.1Q843.0 263.3 843.5 263.3L843.5 263.3Q843.9 263.3 844.2 263.2Q844.5 263.2 844.7 263.1L844.7 263.1L845.5 266.7Q845.1 266.8 844.5 267.0Q843.8 267.2 842.9 267.2L842.9 267.2Q841.1 267.3 839.8 266.7Q838.5 266.2 837.8 265.1Q837.0 263.9 837.0 262.2L837.0 262.2ZM853.1 267.0L848.3 267.0L848.3 249.5L853 249.5L853 252.5L853.2 252.5Q853.7 250.9 854.8 250.1Q855.9 249.2 857.4 249.2L857.4 249.2Q857.7 249.2 858.2 249.3Q858.6 249.3 858.9 249.4L858.9 249.4L858.9 253.7Q858.6 253.6 858.0 253.5Q857.4 253.5 856.9 253.5L856.9 253.5Q855.8 253.5 854.9 253.9Q854.1 254.4 853.6 255.2Q853.1 256.0 853.1 257.1L853.1 257.1L853.1 267.0ZM864.9 273.5L864.9 273.5Q864 273.5 863.2 273.4Q862.4 273.2 861.9 273.0L861.9 273.0L863.0 269.4Q863.8 269.6 864.5 269.7Q865.2 269.7 865.7 269.3Q866.2 269.0 866.5 268.2L866.5 268.2L866.8 267.5L860.5 249.5L865.6 249.5L869.3 262.3L869.4 262.3L873.1 249.5L878.2 249.5L871.4 268.8Q870.9 270.2 870.1 271.3Q869.3 272.3 868.0 272.9Q866.7 273.5 864.9 273.5Z "/><mask id="satori_om-id-2"><rect x="0" y="296" width="1200" height="38" fill="#fff"/></mask><mask id="satori_om-id-2-0"><rect x="0" y="296" width="600" height="38" fill="#fff"/></mask><path fill="#000" d="M236.8 326.3L236.8 326.3Q234.1 326.3 232.2 325.2Q230.3 324.0 229.3 322.0Q228.2 319.9 228.2 317.3L228.2 317.3Q228.2 314.6 229.3 312.6Q230.3 310.6 232.2 309.4Q234.1 308.3 236.8 308.3L236.8 308.3Q239.1 308.3 240.8 309.1Q242.5 309.9 243.5 311.4Q244.5 312.9 244.6 315.0L244.6 315.0L240.0 315.0Q239.9 313.6 239.0 312.8Q238.2 312.0 236.9 312.0L236.9 312.0Q235.8 312.0 234.9 312.7Q234.1 313.3 233.6 314.4Q233.1 315.6 233.1 317.2L233.1 317.2Q233.1 318.9 233.6 320.1Q234.1 321.2 234.9 321.8Q235.8 322.5 236.9 322.5L236.9 322.5Q237.7 322.5 238.4 322.1Q239.0 321.8 239.5 321.1Q239.9 320.5 240.0 319.6L240.0 319.6L244.6 319.6Q244.5 321.6 243.5 323.1Q242.6 324.6 240.9 325.4Q239.1 326.3 236.8 326.3ZM255.6 326.3L255.6 326.3Q253.0 326.3 251.0 325.2Q249.1 324.0 248.1 322.0Q247.0 320.0 247.0 317.3L247.0 317.3Q247.0 314.6 248.1 312.6Q249.1 310.5 251.0 309.4Q253.0 308.3 255.6 308.3L255.6 308.3Q258.3 308.3 260.2 309.4Q262.1 310.5 263.2 312.6Q264.2 314.6 264.2 317.3L264.2 317.3Q264.2 320.0 263.2 322.0Q262.1 324.0 260.2 325.2Q258.3 326.3 255.6 326.3ZM255.6 322.5L255.6 322.5Q256.8 322.5 257.6 321.9Q258.5 321.2 258.9 320.0Q259.3 318.8 259.3 317.3L259.3 317.3Q259.3 315.7 258.9 314.5Q258.5 313.3 257.6 312.7Q256.8 312.0 255.6 312.0L255.6 312.0Q254.4 312.0 253.6 312.7Q252.8 313.3 252.4 314.5Q251.9 315.7 251.9 317.3L251.9 317.3Q251.9 318.8 252.4 320.0Q252.8 321.2 253.6 321.9Q254.4 322.5 255.6 322.5ZM272.2 315.9L272.2 315.9L272.2 326.0L267.4 326.0L267.4 308.5L272.0 308.5L272.0 311.6L272.2 311.6Q272.8 310.1 274.1 309.2Q275.5 308.3 277.4 308.3L277.4 308.3Q279.3 308.3 280.6 309.1Q282.0 309.9 282.7 311.3Q283.5 312.8 283.5 314.8L283.5 314.8L283.5 326.0L278.6 326.0L278.6 315.7Q278.6 314.1 277.8 313.2Q277.0 312.3 275.5 312.3L275.5 312.3Q274.5 312.3 273.8 312.7Q273.0 313.1 272.6 313.9Q272.2 314.7 272.2 315.9ZM285.9 308.5L296.6 308.5L296.6 312.1L285.9 312.1L285.9 308.5ZM293.2 326.0L288.3 326.0L288.3 307.2Q288.3 305.3 289.1 304.1Q289.8 302.8 291.1 302.2Q292.4 301.6 294.1 301.6L294.1 301.6Q295.2 301.6 296.1 301.8Q297.0 301.9 297.5 302.1L297.5 302.1L296.6 305.7Q296.3 305.6 295.9 305.5Q295.5 305.5 295.1 305.5L295.1 305.5Q294.0 305.5 293.6 305.9Q293.2 306.4 293.2 307.3L293.2 307.3L293.2 326.0ZM304.4 326.0L299.6 326.0L299.6 308.5L304.4 308.5L304.4 326.0ZM302.0 306.2L302.0 306.2Q301.0 306.2 300.2 305.5Q299.4 304.8 299.4 303.8L299.4 303.8Q299.4 302.8 300.2 302.1Q301.0 301.3 302.0 301.3L302.0 301.3Q303.1 301.3 303.9 302.1Q304.6 302.8 304.6 303.8L304.6 303.8Q304.6 304.8 303.9 305.5Q303.1 306.2 302.0 306.2ZM316.2 332.9L316.2 332.9Q313.8 332.9 312.1 332.2Q310.5 331.6 309.5 330.5Q308.5 329.4 308.2 328.0L308.2 328.0L312.7 327.4Q312.9 327.9 313.3 328.4Q313.8 328.8 314.5 329.1Q315.2 329.4 316.3 329.4L316.3 329.4Q317.9 329.4 318.9 328.6Q319.9 327.8 319.9 326.1L319.9 326.1L319.9 322.9L319.7 322.9Q319.4 323.6 318.8 324.2Q318.1 324.9 317.1 325.3Q316.1 325.7 314.7 325.7L314.7 325.7Q312.8 325.7 311.2 324.8Q309.6 323.9 308.6 322.0Q307.7 320.1 307.7 317.2L307.7 317.2Q307.7 314.2 308.6 312.2Q309.6 310.2 311.2 309.3Q312.8 308.3 314.7 308.3L314.7 308.3Q316.2 308.3 317.2 308.8Q318.2 309.3 318.8 310.0Q319.4 310.7 319.7 311.4L319.7 311.4L319.9 311.4L319.9 308.5L324.7 308.5L324.7 326.1Q324.7 328.3 323.6 329.8Q322.5 331.3 320.6 332.1Q318.7 332.9 316.2 332.9ZM316.3 322.1L316.3 322.1Q317.4 322.1 318.3 321.5Q319.1 320.9 319.5 319.8Q319.9 318.7 319.9 317.2L319.9 317.2Q319.9 315.6 319.5 314.5Q319.1 313.4 318.3 312.7Q317.4 312.1 316.3 312.1L316.3 312.1Q315.1 312.1 314.3 312.8Q313.4 313.4 313.0 314.5Q312.6 315.7 312.6 317.2L312.6 317.2Q312.6 318.7 313.0 319.8Q313.5 320.9 314.3 321.5Q315.1 322.1 316.3 322.1ZM339.8 318.5L339.8 318.5L339.8 308.5L344.6 308.5L344.6 326.0L340.0 326.0L340.0 322.8L339.8 322.8Q339.2 324.3 337.8 325.2Q336.4 326.2 334.5 326.2L334.5 326.2Q332.7 326.2 331.4 325.4Q330.1 324.6 329.3 323.1Q328.6 321.7 328.6 319.6L328.6 319.6L328.6 308.5L333.4 308.5L333.4 318.7Q333.4 320.3 334.2 321.2Q335.1 322.1 336.4 322.1L336.4 322.1Q337.3 322.1 338.1 321.7Q338.8 321.3 339.3 320.5Q339.8 319.7 339.8 318.5ZM353.3 326.0L348.5 326.0L348.5 308.5L353.2 308.5L353.2 311.5L353.3 311.5Q353.8 309.9 354.9 309.1Q356.1 308.2 357.5 308.2L357.5 308.2Q357.9 308.2 358.3 308.3Q358.7 308.3 359.1 308.4L359.1 308.4L359.1 312.7Q358.7 312.6 358.1 312.5Q357.5 312.5 357.0 312.5L357.0 312.5Q355.9 312.5 355.1 312.9Q354.3 313.4 353.8 314.2Q353.3 315.0 353.3 316.1L353.3 316.1L353.3 326.0ZM368.7 326.3L368.7 326.3Q366.0 326.3 364.1 325.2Q362.1 324.1 361.1 322.1Q360.0 320.1 360.0 317.3L360.0 317.3Q360.0 314.6 361.1 312.6Q362.1 310.5 364.0 309.4Q365.9 308.3 368.5 308.3L368.5 308.3Q370.2 308.3 371.7 308.8Q373.2 309.4 374.3 310.5Q375.4 311.6 376.1 313.2Q376.7 314.9 376.7 317.1L376.7 317.1L376.7 318.5L362.0 318.5L362.0 315.5L372.1 315.5Q372.1 314.4 371.7 313.6Q371.2 312.8 370.4 312.3Q369.6 311.9 368.6 311.9L368.6 311.9Q367.5 311.9 366.6 312.4Q365.8 312.9 365.3 313.7Q364.8 314.6 364.8 315.6L364.8 315.6L364.8 318.5Q364.8 319.8 365.3 320.7Q365.8 321.7 366.7 322.2Q367.5 322.7 368.8 322.7L368.8 322.7Q369.6 322.7 370.2 322.5Q370.9 322.2 371.4 321.8Q371.9 321.3 372.1 320.7L372.1 320.7L376.6 321.0Q376.2 322.6 375.2 323.8Q374.1 325.0 372.5 325.6Q370.8 326.3 368.7 326.3Z M391.1 332.5L391.1 332.5Q390.2 332.5 389.4 332.4Q388.6 332.2 388.0 332.0L388.0 332.0L389.1 328.4Q390.0 328.6 390.7 328.7Q391.4 328.7 391.9 328.3Q392.4 328.0 392.7 327.2L392.7 327.2L393.0 326.5L386.7 308.5L391.8 308.5L395.4 321.3L395.6 321.3L399.2 308.5L404.4 308.5L397.6 327.8Q397.1 329.2 396.3 330.3Q395.4 331.3 394.1 331.9Q392.9 332.5 391.1 332.5ZM414.1 326.3L414.1 326.3Q411.5 326.3 409.6 325.2Q407.6 324.0 406.6 322.0Q405.6 320.0 405.6 317.3L405.6 317.3Q405.6 314.6 406.6 312.6Q407.6 310.5 409.6 309.4Q411.5 308.3 414.1 308.3L414.1 308.3Q416.8 308.3 418.7 309.4Q420.6 310.5 421.7 312.6Q422.7 314.6 422.7 317.3L422.7 317.3Q422.7 320.0 421.7 322.0Q420.6 324.0 418.7 325.2Q416.8 326.3 414.1 326.3ZM414.2 322.5L414.2 322.5Q415.4 322.5 416.2 321.9Q417.0 321.2 417.4 320.0Q417.8 318.8 417.8 317.3L417.8 317.3Q417.8 315.7 417.4 314.5Q417.0 313.3 416.2 312.7Q415.4 312.0 414.2 312.0L414.2 312.0Q413.0 312.0 412.1 312.7Q411.3 313.3 410.9 314.5Q410.5 315.7 410.5 317.3L410.5 317.3Q410.5 318.8 410.9 320.0Q411.3 321.2 412.1 321.9Q413.0 322.5 414.2 322.5ZM437.1 318.5L437.1 318.5L437.1 308.5L441.9 308.5L441.9 326.0L437.3 326.0L437.3 322.8L437.1 322.8Q436.5 324.3 435.1 325.2Q433.8 326.2 431.8 326.2L431.8 326.2Q430.1 326.2 428.7 325.4Q427.4 324.6 426.7 323.1Q425.9 321.7 425.9 319.6L425.9 319.6L425.9 308.5L430.7 308.5L430.7 318.7Q430.8 320.3 431.6 321.2Q432.4 322.1 433.8 322.1L433.8 322.1Q434.6 322.1 435.4 321.7Q436.2 321.3 436.6 320.5Q437.1 319.7 437.1 318.5ZM450.6 326.0L445.8 326.0L445.8 308.5L450.5 308.5L450.5 311.5L450.7 311.5Q451.1 309.9 452.3 309.1Q453.4 308.2 454.9 308.2L454.9 308.2Q455.2 308.2 455.6 308.3Q456.1 308.3 456.4 308.4L456.4 308.4L456.4 312.7Q456.0 312.6 455.4 312.5Q454.8 312.5 454.3 312.5L454.3 312.5Q453.3 312.5 452.4 312.9Q451.6 313.4 451.1 314.2Q450.6 315.0 450.6 316.1L450.6 316.1L450.6 326.0Z M471.7 326.0L466.9 326.0L466.9 308.5L471.5 308.5L471.5 311.6L471.7 311.6Q472.2 310.0 473.5 309.2Q474.8 308.3 476.6 308.3L476.6 308.3Q478.4 308.3 479.6 309.2Q480.9 310.1 481.3 311.6L481.3 311.6L481.5 311.6Q482.0 310.1 483.4 309.2Q484.8 308.3 486.7 308.3L486.7 308.3Q489.2 308.3 490.7 309.8Q492.2 311.4 492.2 314.2L492.2 314.2L492.2 326.0L487.4 326.0L487.4 315.2Q487.4 313.7 486.6 313.0Q485.9 312.3 484.7 312.3L484.7 312.3Q483.4 312.3 482.6 313.1Q481.9 313.9 481.9 315.3L481.9 315.3L481.9 326.0L477.2 326.0L477.2 315.1Q477.2 313.8 476.5 313.0Q475.8 312.3 474.6 312.3L474.6 312.3Q473.8 312.3 473.1 312.7Q472.5 313.1 472.1 313.8Q471.7 314.5 471.7 315.5L471.7 315.5L471.7 326.0ZM503.9 326.3L503.9 326.3Q501.3 326.3 499.4 325.2Q497.4 324.0 496.4 322.0Q495.4 320.0 495.4 317.3L495.4 317.3Q495.4 314.6 496.4 312.6Q497.4 310.5 499.4 309.4Q501.3 308.3 503.9 308.3L503.9 308.3Q506.6 308.3 508.5 309.4Q510.4 310.5 511.5 312.6Q512.5 314.6 512.5 317.3L512.5 317.3Q512.5 320.0 511.5 322.0Q510.4 324.0 508.5 325.2Q506.6 326.3 503.9 326.3ZM504.0 322.5L504.0 322.5Q505.2 322.5 506.0 321.9Q506.8 321.2 507.2 320.0Q507.6 318.8 507.6 317.3L507.6 317.3Q507.6 315.7 507.2 314.5Q506.8 313.3 506.0 312.7Q505.2 312.0 504.0 312.0L504.0 312.0Q502.8 312.0 501.9 312.7Q501.1 313.3 500.7 314.5Q500.3 315.7 500.3 317.3L500.3 317.3Q500.3 318.8 500.7 320.0Q501.1 321.2 501.9 321.9Q502.8 322.5 504.0 322.5ZM522.1 326.2L522.1 326.2Q520.1 326.2 518.5 325.2Q516.9 324.2 516.0 322.2Q515.0 320.2 515.0 317.2L515.0 317.2Q515.0 314.2 516.0 312.3Q517.0 310.3 518.6 309.3Q520.2 308.3 522.1 308.3L522.1 308.3Q523.6 308.3 524.6 308.8Q525.5 309.3 526.2 310.0Q526.8 310.7 527.1 311.4L527.1 311.4L527.2 311.4L527.2 302.7L532.1 302.7L532.1 326.0L527.3 326.0L527.3 323.2L527.1 323.2Q526.7 323.9 526.1 324.6Q525.5 325.3 524.5 325.8Q523.5 326.2 522.1 326.2ZM523.7 322.4L523.7 322.4Q524.8 322.4 525.6 321.7Q526.5 321.1 526.9 319.9Q527.3 318.8 527.3 317.2L527.3 317.2Q527.3 315.7 526.9 314.5Q526.5 313.4 525.6 312.7Q524.8 312.1 523.7 312.1L523.7 312.1Q522.5 312.1 521.6 312.8Q520.8 313.4 520.4 314.6Q520.0 315.7 520.0 317.2L520.0 317.2Q520.0 318.7 520.4 319.9Q520.8 321.1 521.7 321.7Q522.5 322.4 523.7 322.4ZM547.2 318.5L547.2 318.5L547.2 308.5L552.1 308.5L552.1 326.0L547.4 326.0L547.4 322.8L547.2 322.8Q546.6 324.3 545.3 325.2Q543.9 326.2 541.9 326.2L541.9 326.2Q540.2 326.2 538.9 325.4Q537.5 324.6 536.8 323.1Q536.0 321.7 536.0 319.6L536.0 319.6L536.0 308.5L540.9 308.5L540.9 318.7Q540.9 320.3 541.7 321.2Q542.5 322.1 543.9 322.1L543.9 322.1Q544.8 322.1 545.5 321.7Q546.3 321.3 546.8 320.5Q547.2 319.7 547.2 318.5ZM555.9 302.7L560.8 302.7L560.8 326.0L555.9 326.0L555.9 302.7ZM572.6 326.3L572.6 326.3Q569.9 326.3 567.9 325.2Q566.0 324.1 565.0 322.1Q563.9 320.1 563.9 317.3L563.9 317.3Q563.9 314.6 565.0 312.6Q566.0 310.5 567.9 309.4Q569.8 308.3 572.4 308.3L572.4 308.3Q574.1 308.3 575.6 308.8Q577.1 309.4 578.2 310.5Q579.3 311.6 580.0 313.2Q580.6 314.9 580.6 317.1L580.6 317.1L580.6 318.5L565.9 318.5L565.9 315.5L576.0 315.5Q576.0 314.4 575.6 313.6Q575.1 312.8 574.3 312.3Q573.5 311.9 572.5 311.9L572.5 311.9Q571.4 311.9 570.5 312.4Q569.7 312.9 569.2 313.7Q568.7 314.6 568.7 315.6L568.7 315.6L568.7 318.5Q568.7 319.8 569.2 320.7Q569.7 321.7 570.6 322.2Q571.4 322.7 572.7 322.7L572.7 322.7Q573.5 322.7 574.1 322.5Q574.8 322.2 575.3 321.8Q575.8 321.3 576.0 320.7L576.0 320.7L580.5 321.0Q580.1 322.6 579.1 323.8Q578.0 325.0 576.4 325.6Q574.7 326.3 572.6 326.3ZM598.3 313.5L598.3 313.5L593.8 313.7Q593.7 313.2 593.4 312.7Q593.0 312.3 592.4 312.0Q591.8 311.7 590.9 311.7L590.9 311.7Q589.8 311.7 589.0 312.2Q588.3 312.6 588.3 313.4L588.3 313.4Q588.3 314.1 588.8 314.5Q589.3 314.9 590.5 315.2L590.5 315.2L593.6 315.8Q596.2 316.3 597.4 317.5Q598.7 318.7 598.7 320.5L598.7 320.5Q598.7 322.3 597.7 323.6Q596.7 324.8 594.9 325.6Q593.2 326.3 590.9 326.3L590.9 326.3Q587.4 326.3 585.4 324.8Q583.3 323.4 583.0 320.9L583.0 320.9L587.7 320.6Q588.0 321.7 588.8 322.3Q589.6 322.8 590.9 322.8L590.9 322.8Q592.2 322.8 593.0 322.3Q593.7 321.8 593.8 321.0L593.8 321.0Q593.7 320.4 593.2 319.9Q592.6 319.5 591.5 319.3L591.5 319.3L588.5 318.7Q585.9 318.2 584.7 316.9Q583.4 315.7 583.4 313.7L583.4 313.7Q583.4 312.0 584.4 310.8Q585.3 309.6 586.9 308.9Q588.6 308.3 590.8 308.3L590.8 308.3Q594.1 308.3 596.1 309.7Q598.0 311.1 598.3 313.5Z "/><mask id="satori_om-id-2-1"><rect x="600" y="296" width="600" height="38" fill="#fff"/></mask><path fill="#fff" d="M625.5 326.0L620.4 326.0L615.6 308.5L620.5 308.5L623.2 320.2L623.4 320.2L626.2 308.5L631.0 308.5L633.9 320.2L634.0 320.2L636.7 308.5L641.6 308.5L636.8 326.0L631.7 326.0L628.7 315.0L628.5 315.0L625.5 326.0ZM649.0 326.0L644.1 326.0L644.1 308.5L649.0 308.5L649.0 326.0ZM646.6 306.2L646.6 306.2Q645.5 306.2 644.7 305.5Q644.0 304.8 644.0 303.8L644.0 303.8Q644.0 302.8 644.7 302.1Q645.5 301.3 646.6 301.3L646.6 301.3Q647.6 301.3 648.4 302.1Q649.2 302.8 649.2 303.8L649.2 303.8Q649.2 304.8 648.4 305.5Q647.6 306.2 646.6 306.2ZM651.6 308.5L662.1 308.5L662.1 312.1L651.6 312.1L651.6 308.5ZM654.0 321.2L654.0 304.3L658.8 304.3L658.8 320.6Q658.8 321.3 659.0 321.6Q659.3 322.0 659.6 322.1Q660.0 322.3 660.5 322.3L660.5 322.3Q660.8 322.3 661.2 322.2Q661.5 322.2 661.7 322.1L661.7 322.1L662.4 325.7Q662.1 325.8 661.4 326.0Q660.8 326.2 659.8 326.2L659.8 326.2Q658.1 326.3 656.8 325.7Q655.4 325.2 654.7 324.1Q654.0 322.9 654.0 321.2L654.0 321.2ZM670.5 315.9L670.5 315.9L670.5 326.0L665.6 326.0L665.6 302.7L670.3 302.7L670.3 311.6L670.5 311.6Q671.1 310.0 672.5 309.2Q673.8 308.3 675.8 308.3L675.8 308.3Q677.6 308.3 678.9 309.1Q680.3 309.8 681.1 311.3Q681.8 312.8 681.8 314.8L681.8 314.8L681.8 326.0L677.0 326.0L677.0 315.7Q677.0 314.1 676.1 313.2Q675.3 312.3 673.8 312.3L673.8 312.3Q672.9 312.3 672.1 312.7Q671.3 313.1 670.9 313.9Q670.5 314.7 670.5 315.9Z M700.6 326.3L700.6 326.3Q697.9 326.3 696.0 325.2Q694.1 324.1 693.0 322.1Q692.0 320.1 692.0 317.3L692.0 317.3Q692.0 314.6 693.0 312.6Q694.1 310.5 696.0 309.4Q697.9 308.3 700.4 308.3L700.4 308.3Q702.2 308.3 703.7 308.8Q705.1 309.4 706.3 310.5Q707.4 311.6 708.0 313.2Q708.6 314.9 708.6 317.1L708.6 317.1L708.6 318.5L693.9 318.5L693.9 315.5L704.1 315.5Q704.1 314.4 703.6 313.6Q703.2 312.8 702.4 312.3Q701.6 311.9 700.5 311.9L700.5 311.9Q699.4 311.9 698.6 312.4Q697.7 312.9 697.2 313.7Q696.8 314.6 696.8 315.6L696.8 315.6L696.8 318.5Q696.8 319.8 697.2 320.7Q697.7 321.7 698.6 322.2Q699.5 322.7 700.7 322.7L700.7 322.7Q701.5 322.7 702.2 322.5Q702.9 322.2 703.3 321.8Q703.8 321.3 704.1 320.7L704.1 320.7L708.5 321.0Q708.2 322.6 707.1 323.8Q706.1 325.0 704.4 325.6Q702.8 326.3 700.6 326.3ZM716.6 315.9L716.6 315.9L716.6 326.0L711.8 326.0L711.8 308.5L716.4 308.5L716.4 311.6L716.6 311.6Q717.2 310.1 718.6 309.2Q719.9 308.3 721.9 308.3L721.9 308.3Q723.7 308.3 725.0 309.1Q726.4 309.9 727.1 311.3Q727.9 312.8 727.9 314.8L727.9 314.8L727.9 326.0L723.0 326.0L723.0 315.7Q723.1 314.1 722.2 313.2Q721.4 312.3 719.9 312.3L719.9 312.3Q719.0 312.3 718.2 312.7Q717.5 313.1 717.1 313.9Q716.6 314.7 716.6 315.9ZM730.5 308.5L741.0 308.5L741.0 312.1L730.5 312.1L730.5 308.5ZM732.9 321.2L732.9 304.3L737.7 304.3L737.7 320.6Q737.7 321.3 737.9 321.6Q738.1 322.0 738.5 322.1Q738.8 322.3 739.3 322.3L739.3 322.3Q739.7 322.3 740.0 322.2Q740.4 322.2 740.5 322.1L740.5 322.1L741.3 325.7Q740.9 325.8 740.3 326.0Q739.6 326.2 738.7 326.2L738.7 326.2Q736.9 326.3 735.6 325.7Q734.3 325.2 733.6 324.1Q732.8 322.9 732.9 321.2L732.9 321.2ZM749.0 326.0L744.1 326.0L744.1 308.5L749.0 308.5L749.0 326.0ZM746.6 306.2L746.6 306.2Q745.5 306.2 744.7 305.5Q743.9 304.8 743.9 303.8L743.9 303.8Q743.9 302.8 744.7 302.1Q745.5 301.3 746.6 301.3L746.6 301.3Q747.6 301.3 748.4 302.1Q749.2 302.8 749.2 303.8L749.2 303.8Q749.2 304.8 748.4 305.5Q747.6 306.2 746.6 306.2ZM751.6 308.5L762.1 308.5L762.1 312.1L751.6 312.1L751.6 308.5ZM754.0 321.2L754.0 304.3L758.8 304.3L758.8 320.6Q758.8 321.3 759.0 321.6Q759.2 322.0 759.6 322.1Q760.0 322.3 760.5 322.3L760.5 322.3Q760.8 322.3 761.1 322.2Q761.5 322.2 761.7 322.1L761.7 322.1L762.4 325.7Q762.1 325.8 761.4 326.0Q760.8 326.2 759.8 326.2L759.8 326.2Q758.1 326.3 756.7 325.7Q755.4 325.2 754.7 324.1Q754.0 322.9 754.0 321.2L754.0 321.2ZM770.1 326.0L765.3 326.0L765.3 308.5L770.1 308.5L770.1 326.0ZM767.7 306.2L767.7 306.2Q766.6 306.2 765.8 305.5Q765.1 304.8 765.1 303.8L765.1 303.8Q765.1 302.8 765.8 302.1Q766.6 301.3 767.7 301.3L767.7 301.3Q768.8 301.3 769.5 302.1Q770.3 302.8 770.3 303.8L770.3 303.8Q770.3 304.8 769.5 305.5Q768.8 306.2 767.7 306.2ZM781.9 326.3L781.9 326.3Q779.2 326.3 777.3 325.2Q775.4 324.1 774.3 322.1Q773.3 320.1 773.3 317.3L773.3 317.3Q773.3 314.6 774.3 312.6Q775.4 310.5 777.3 309.4Q779.2 308.3 781.7 308.3L781.7 308.3Q783.5 308.3 784.9 308.8Q786.4 309.4 787.6 310.5Q788.7 311.6 789.3 313.2Q789.9 314.9 789.9 317.1L789.9 317.1L789.9 318.5L775.2 318.5L775.2 315.5L785.4 315.5Q785.4 314.4 784.9 313.6Q784.5 312.8 783.7 312.3Q782.9 311.9 781.8 311.9L781.8 311.9Q780.7 311.9 779.9 312.4Q779.0 312.9 778.5 313.7Q778.1 314.6 778.0 315.6L778.0 315.6L778.0 318.5Q778.0 319.8 778.5 320.7Q779.0 321.7 779.9 322.2Q780.8 322.7 782 322.7L782 322.7Q782.8 322.7 783.5 322.5Q784.1 322.2 784.6 321.8Q785.1 321.3 785.4 320.7L785.4 320.7L789.8 321.0Q789.5 322.6 788.4 323.8Q787.4 325.0 785.7 325.6Q784.1 326.3 781.9 326.3ZM807.6 313.5L807.6 313.5L803.2 313.7Q803.1 313.2 802.7 312.7Q802.3 312.3 801.7 312.0Q801.1 311.7 800.3 311.7L800.3 311.7Q799.1 311.7 798.4 312.2Q797.6 312.6 797.6 313.4L797.6 313.4Q797.6 314.1 798.1 314.5Q798.6 314.9 799.8 315.2L799.8 315.2L803.0 315.8Q805.5 316.3 806.8 317.5Q808.0 318.7 808.0 320.5L808.0 320.5Q808.0 322.3 807.0 323.6Q806 324.8 804.3 325.6Q802.5 326.3 800.2 326.3L800.2 326.3Q796.8 326.3 794.7 324.8Q792.7 323.4 792.3 320.9L792.3 320.9L797.1 320.6Q797.3 321.7 798.1 322.3Q799.0 322.8 800.3 322.8L800.3 322.8Q801.5 322.8 802.3 322.3Q803.1 321.8 803.1 321.0L803.1 321.0Q803.1 320.4 802.5 319.9Q802.0 319.5 800.9 319.3L800.9 319.3L797.8 318.7Q795.3 318.2 794.0 316.9Q792.8 315.7 792.8 313.7L792.8 313.7Q792.8 312.0 793.7 310.8Q794.6 309.6 796.3 308.9Q797.9 308.3 800.2 308.3L800.2 308.3Q803.5 308.3 805.4 309.7Q807.3 311.1 807.6 313.5Z "/><mask id="satori_om-id-3"><rect x="0" y="354" width="1200" height="39" fill="#fff"/></mask><mask id="satori_om-id-3-0"><rect x="0" y="354" width="600" height="39" fill="#fff"/></mask><path fill="#000" d="M192.8 384.3L192.8 384.3Q190.1 384.3 188.2 383.2Q186.3 382.0 185.3 380.0Q184.2 377.9 184.2 375.3L184.2 375.3Q184.2 372.6 185.3 370.6Q186.3 368.6 188.2 367.4Q190.1 366.3 192.8 366.3L192.8 366.3Q195.1 366.3 196.8 367.1Q198.5 367.9 199.5 369.4Q200.5 370.9 200.6 373.0L200.6 373.0L196.0 373.0Q195.9 371.6 195.0 370.8Q194.2 370.0 192.9 370.0L192.9 370.0Q191.8 370.0 190.9 370.7Q190.1 371.3 189.6 372.4Q189.1 373.6 189.1 375.2L189.1 375.2Q189.1 376.9 189.6 378.1Q190.1 379.2 190.9 379.8Q191.8 380.5 192.9 380.5L192.9 380.5Q193.7 380.5 194.4 380.1Q195.0 379.8 195.5 379.1Q195.9 378.5 196.0 377.6L196.0 377.6L200.6 377.6Q200.5 379.6 199.5 381.1Q198.6 382.6 196.9 383.4Q195.1 384.3 192.8 384.3ZM211.6 384.3L211.6 384.3Q209.0 384.3 207.0 383.2Q205.1 382.0 204.1 380.0Q203.0 378.0 203.0 375.3L203.0 375.3Q203.0 372.6 204.1 370.6Q205.1 368.5 207.0 367.4Q209.0 366.3 211.6 366.3L211.6 366.3Q214.3 366.3 216.2 367.4Q218.1 368.5 219.2 370.6Q220.2 372.6 220.2 375.3L220.2 375.3Q220.2 378.0 219.2 380.0Q218.1 382.0 216.2 383.2Q214.3 384.3 211.6 384.3ZM211.6 380.5L211.6 380.5Q212.8 380.5 213.6 379.9Q214.5 379.2 214.9 378.0Q215.3 376.8 215.3 375.3L215.3 375.3Q215.3 373.7 214.9 372.5Q214.5 371.3 213.6 370.7Q212.8 370.0 211.6 370.0L211.6 370.0Q210.4 370.0 209.6 370.7Q208.8 371.3 208.4 372.5Q207.9 373.7 207.9 375.3L207.9 375.3Q207.9 376.8 208.4 378.0Q208.8 379.2 209.6 379.9Q210.4 380.5 211.6 380.5ZM228.2 384.0L223.4 384.0L223.4 366.5L228.0 366.5L228.0 369.6L228.2 369.6Q228.7 368.0 230 367.2Q231.3 366.3 233.0 366.3L233.0 366.3Q234.8 366.3 236.1 367.2Q237.4 368.1 237.8 369.6L237.8 369.6L238.0 369.6Q238.5 368.1 239.9 367.2Q241.3 366.3 243.2 366.3L243.2 366.3Q245.7 366.3 247.2 367.8Q248.7 369.4 248.7 372.2L248.7 372.2L248.7 384.0L243.9 384.0L243.9 373.2Q243.9 371.7 243.1 371.0Q242.4 370.3 241.2 370.3L241.2 370.3Q239.9 370.3 239.1 371.1Q238.4 371.9 238.4 373.3L238.4 373.3L238.4 384.0L233.7 384.0L233.7 373.1Q233.7 371.8 233.0 371.0Q232.2 370.3 231.0 370.3L231.0 370.3Q230.2 370.3 229.6 370.7Q229.0 371.1 228.6 371.8Q228.2 372.5 228.2 373.5L228.2 373.5L228.2 384.0ZM257.4 384.0L252.6 384.0L252.6 360.7L257.5 360.7L257.5 369.4L257.6 369.4Q257.9 368.7 258.6 368.0Q259.2 367.3 260.1 366.8Q261.1 366.3 262.6 366.3L262.6 366.3Q264.5 366.3 266.1 367.3Q267.7 368.3 268.7 370.3Q269.7 372.2 269.7 375.2L269.7 375.2Q269.7 378.2 268.7 380.2Q267.8 382.2 266.2 383.2Q264.6 384.2 262.6 384.2L262.6 384.2Q261.2 384.2 260.2 383.8Q259.2 383.3 258.6 382.6Q258.0 381.9 257.6 381.2L257.6 381.2L257.4 381.2L257.4 384.0ZM257.4 375.2L257.4 375.2Q257.4 376.8 257.8 377.9Q258.2 379.1 259.1 379.7Q259.9 380.4 261.0 380.4L261.0 380.4Q262.2 380.4 263.0 379.7Q263.9 379.1 264.3 377.9Q264.7 376.7 264.7 375.2L264.7 375.2Q264.7 373.7 264.3 372.6Q263.9 371.4 263.1 370.8Q262.2 370.1 261.0 370.1L261.0 370.1Q259.9 370.1 259.1 370.7Q258.2 371.4 257.8 372.5Q257.4 373.7 257.4 375.2ZM277.7 384.0L272.9 384.0L272.9 366.5L277.7 366.5L277.7 384.0ZM275.3 364.2L275.3 364.2Q274.2 364.2 273.5 363.5Q272.7 362.8 272.7 361.8L272.7 361.8Q272.7 360.8 273.5 360.1Q274.2 359.3 275.3 359.3L275.3 359.3Q276.4 359.3 277.2 360.1Q277.9 360.8 277.9 361.8L277.9 361.8Q277.9 362.8 277.2 363.5Q276.4 364.2 275.3 364.2ZM286.4 373.9L286.4 373.9L286.4 384.0L281.6 384.0L281.6 366.5L286.2 366.5L286.2 369.6L286.4 369.6Q287.0 368.1 288.3 367.2Q289.7 366.3 291.6 366.3L291.6 366.3Q293.5 366.3 294.8 367.1Q296.2 367.9 296.9 369.3Q297.7 370.8 297.7 372.8L297.7 372.8L297.7 384.0L292.8 384.0L292.8 373.7Q292.8 372.1 292.0 371.2Q291.2 370.3 289.7 370.3L289.7 370.3Q288.8 370.3 288.0 370.7Q287.3 371.1 286.8 371.9Q286.4 372.7 286.4 373.9ZM309.4 384.3L309.4 384.3Q306.7 384.3 304.8 383.2Q302.9 382.1 301.8 380.1Q300.8 378.1 300.8 375.3L300.8 375.3Q300.8 372.6 301.8 370.6Q302.9 368.5 304.8 367.4Q306.7 366.3 309.2 366.3L309.2 366.3Q311.0 366.3 312.5 366.8Q314.0 367.4 315.1 368.5Q316.2 369.6 316.8 371.2Q317.4 372.9 317.4 375.1L317.4 375.1L317.4 376.5L302.7 376.5L302.7 373.5L312.9 373.5Q312.9 372.4 312.4 371.6Q312.0 370.8 311.2 370.3Q310.4 369.9 309.3 369.9L309.3 369.9Q308.2 369.9 307.4 370.4Q306.5 370.9 306.0 371.7Q305.6 372.6 305.6 373.6L305.6 373.6L305.6 376.5Q305.6 377.8 306.0 378.7Q306.5 379.7 307.4 380.2Q308.3 380.7 309.5 380.7L309.5 380.7Q310.3 380.7 311.0 380.5Q311.7 380.2 312.1 379.8Q312.6 379.3 312.9 378.7L312.9 378.7L317.3 379.0Q317.0 380.6 315.9 381.8Q314.9 383.0 313.2 383.6Q311.6 384.3 309.4 384.3Z M332.9 384.0L328.0 384.0L328.0 366.5L332.6 366.5L332.6 369.6L332.8 369.6Q333.4 368.0 334.7 367.2Q335.9 366.3 337.7 366.3L337.7 366.3Q339.5 366.3 340.8 367.2Q342.0 368.1 342.4 369.6L342.4 369.6L342.6 369.6Q343.2 368.1 344.6 367.2Q346.0 366.3 347.9 366.3L347.9 366.3Q350.3 366.3 351.9 367.8Q353.4 369.4 353.4 372.2L353.4 372.2L353.4 384.0L348.6 384.0L348.6 373.2Q348.6 371.7 347.8 371.0Q347.0 370.3 345.9 370.3L345.9 370.3Q344.5 370.3 343.8 371.1Q343.1 371.9 343.1 373.3L343.1 373.3L343.1 384.0L338.4 384.0L338.4 373.1Q338.4 371.8 337.6 371.0Q336.9 370.3 335.7 370.3L335.7 370.3Q334.9 370.3 334.3 370.7Q333.6 371.1 333.2 371.8Q332.9 372.5 332.9 373.5L332.9 373.5L332.9 384.0ZM365.1 384.3L365.1 384.3Q362.4 384.3 360.5 383.2Q358.6 382.0 357.5 380.0Q356.5 378.0 356.5 375.3L356.5 375.3Q356.5 372.6 357.5 370.6Q358.6 368.5 360.5 367.4Q362.4 366.3 365.1 366.3L365.1 366.3Q367.7 366.3 369.7 367.4Q371.6 368.5 372.6 370.6Q373.7 372.6 373.7 375.3L373.7 375.3Q373.7 378.0 372.6 380.0Q371.6 382.0 369.7 383.2Q367.7 384.3 365.1 384.3ZM365.1 380.5L365.1 380.5Q366.3 380.5 367.1 379.9Q367.9 379.2 368.3 378.0Q368.8 376.8 368.8 375.3L368.8 375.3Q368.8 373.7 368.3 372.5Q367.9 371.3 367.1 370.7Q366.3 370.0 365.1 370.0L365.1 370.0Q363.9 370.0 363.1 370.7Q362.3 371.3 361.8 372.5Q361.4 373.7 361.4 375.3L361.4 375.3Q361.4 376.8 361.8 378.0Q362.3 379.2 363.1 379.9Q363.9 380.5 365.1 380.5ZM383.3 384.2L383.3 384.2Q381.3 384.2 379.7 383.2Q378.1 382.2 377.1 380.2Q376.2 378.2 376.2 375.2L376.2 375.2Q376.2 372.2 377.2 370.3Q378.1 368.3 379.7 367.3Q381.3 366.3 383.3 366.3L383.3 366.3Q384.7 366.3 385.7 366.8Q386.7 367.3 387.3 368.0Q387.9 368.7 388.2 369.4L388.2 369.4L388.4 369.4L388.4 360.7L393.2 360.7L393.2 384.0L388.4 384.0L388.4 381.2L388.2 381.2Q387.9 381.9 387.3 382.6Q386.6 383.3 385.7 383.8Q384.7 384.2 383.3 384.2ZM384.8 380.4L384.8 380.4Q386.0 380.4 386.8 379.7Q387.6 379.1 388.0 377.9Q388.5 376.8 388.5 375.2L388.5 375.2Q388.5 373.7 388.0 372.5Q387.6 371.4 386.8 370.7Q386.0 370.1 384.8 370.1L384.8 370.1Q383.6 370.1 382.8 370.8Q382.0 371.4 381.6 372.6Q381.1 373.7 381.1 375.2L381.1 375.2Q381.1 376.7 381.6 377.9Q382.0 379.1 382.8 379.7Q383.6 380.4 384.8 380.4ZM408.4 376.5L408.4 376.5L408.4 366.5L413.2 366.5L413.2 384.0L408.6 384.0L408.6 380.8L408.4 380.8Q407.8 382.3 406.4 383.2Q405.0 384.2 403.1 384.2L403.1 384.2Q401.3 384.2 400.0 383.4Q398.7 382.6 397.9 381.1Q397.2 379.7 397.2 377.6L397.2 377.6L397.2 366.5L402.0 366.5L402.0 376.7Q402.0 378.3 402.8 379.2Q403.7 380.1 405.0 380.1L405.0 380.1Q405.9 380.1 406.7 379.7Q407.4 379.3 407.9 378.5Q408.4 377.7 408.4 376.5ZM417.1 360.7L421.9 360.7L421.9 384.0L417.1 384.0L417.1 360.7ZM433.7 384.3L433.7 384.3Q431.0 384.3 429.1 383.2Q427.2 382.1 426.1 380.1Q425.1 378.1 425.1 375.3L425.1 375.3Q425.1 372.6 426.1 370.6Q427.2 368.5 429.1 367.4Q431.0 366.3 433.5 366.3L433.5 366.3Q435.3 366.3 436.8 366.8Q438.2 367.4 439.4 368.5Q440.5 369.6 441.1 371.2Q441.7 372.9 441.7 375.1L441.7 375.1L441.7 376.5L427.0 376.5L427.0 373.5L437.2 373.5Q437.2 372.4 436.7 371.6Q436.3 370.8 435.5 370.3Q434.7 369.9 433.6 369.9L433.6 369.9Q432.5 369.9 431.7 370.4Q430.8 370.9 430.3 371.7Q429.9 372.6 429.9 373.6L429.9 373.6L429.9 376.5Q429.9 377.8 430.3 378.7Q430.8 379.7 431.7 380.2Q432.6 380.7 433.8 380.7L433.8 380.7Q434.6 380.7 435.3 380.5Q436.0 380.2 436.4 379.8Q436.9 379.3 437.2 378.7L437.2 378.7L441.6 379.0Q441.3 380.6 440.2 381.8Q439.2 383.0 437.5 383.6Q435.9 384.3 433.7 384.3Z M450.9 366.5L461.7 366.5L461.7 370.1L450.9 370.1L450.9 366.5ZM458.2 384.0L453.4 384.0L453.4 365.2Q453.4 363.3 454.1 362.1Q454.9 360.8 456.2 360.2Q457.5 359.6 459.1 359.6L459.1 359.6Q460.2 359.6 461.2 359.8Q462.1 359.9 462.5 360.1L462.5 360.1L461.7 363.7Q461.4 363.6 461.0 363.5Q460.6 363.5 460.1 363.5L460.1 363.5Q459.1 363.5 458.6 363.9Q458.2 364.4 458.2 365.3L458.2 365.3L458.2 384.0ZM475.9 376.5L475.9 376.5L475.9 366.5L480.7 366.5L480.7 384.0L476.0 384.0L476.0 380.8L475.9 380.8Q475.3 382.3 473.9 383.2Q472.5 384.2 470.6 384.2L470.6 384.2Q468.8 384.2 467.5 383.4Q466.2 382.6 465.4 381.1Q464.7 379.7 464.7 377.6L464.7 377.6L464.7 366.5L469.5 366.5L469.5 376.7Q469.5 378.3 470.3 379.2Q471.1 380.1 472.5 380.1L472.5 380.1Q473.4 380.1 474.2 379.7Q474.9 379.3 475.4 378.5Q475.9 377.7 475.9 376.5ZM489.4 373.9L489.4 373.9L489.4 384.0L484.6 384.0L484.6 366.5L489.2 366.5L489.2 369.6L489.4 369.6Q490.0 368.1 491.3 367.2Q492.7 366.3 494.6 366.3L494.6 366.3Q496.4 366.3 497.8 367.1Q499.1 367.9 499.9 369.3Q500.6 370.8 500.6 372.8L500.6 372.8L500.6 384.0L495.8 384.0L495.8 373.7Q495.8 372.1 495.0 371.2Q494.2 370.3 492.7 370.3L492.7 370.3Q491.7 370.3 491.0 370.7Q490.2 371.1 489.8 371.9Q489.4 372.7 489.4 373.9ZM512.3 384.3L512.3 384.3Q509.7 384.3 507.7 383.2Q505.8 382.0 504.8 380.0Q503.7 377.9 503.7 375.3L503.7 375.3Q503.7 372.6 504.8 370.6Q505.8 368.6 507.7 367.4Q509.7 366.3 512.3 366.3L512.3 366.3Q514.6 366.3 516.3 367.1Q518.0 367.9 519.0 369.4Q520.0 370.9 520.1 373.0L520.1 373.0L515.6 373.0Q515.4 371.6 514.6 370.8Q513.7 370.0 512.4 370.0L512.4 370.0Q511.3 370.0 510.4 370.7Q509.6 371.3 509.1 372.4Q508.7 373.6 508.7 375.2L508.7 375.2Q508.7 376.9 509.1 378.1Q509.6 379.2 510.4 379.8Q511.3 380.5 512.4 380.5L512.4 380.5Q513.2 380.5 513.9 380.1Q514.6 379.8 515.0 379.1Q515.4 378.5 515.6 377.6L515.6 377.6L520.1 377.6Q520.0 379.6 519.1 381.1Q518.1 382.6 516.4 383.4Q514.7 384.3 512.3 384.3ZM522.0 366.5L532.5 366.5L532.5 370.1L522.0 370.1L522.0 366.5ZM524.4 379.2L524.4 362.3L529.2 362.3L529.2 378.6Q529.2 379.3 529.5 379.6Q529.7 380.0 530.0 380.1Q530.4 380.3 530.9 380.3L530.9 380.3Q531.2 380.3 531.6 380.2Q531.9 380.2 532.1 380.1L532.1 380.1L532.9 383.7Q532.5 383.8 531.8 384.0Q531.2 384.2 530.2 384.2L530.2 384.2Q528.5 384.3 527.2 383.7Q525.9 383.2 525.1 382.1Q524.4 380.9 524.4 379.2L524.4 379.2ZM540.5 384.0L535.7 384.0L535.7 366.5L540.5 366.5L540.5 384.0ZM538.1 364.2L538.1 364.2Q537.0 364.2 536.3 363.5Q535.5 362.8 535.5 361.8L535.5 361.8Q535.5 360.8 536.3 360.1Q537.0 359.3 538.1 359.3L538.1 359.3Q539.2 359.3 540.0 360.1Q540.7 360.8 540.7 361.8L540.7 361.8Q540.7 362.8 540.0 363.5Q539.2 364.2 538.1 364.2ZM552.3 384.3L552.3 384.3Q549.6 384.3 547.7 383.2Q545.8 382.0 544.7 380.0Q543.7 378.0 543.7 375.3L543.7 375.3Q543.7 372.6 544.7 370.6Q545.8 368.5 547.7 367.4Q549.6 366.3 552.3 366.3L552.3 366.3Q554.9 366.3 556.8 367.4Q558.8 368.5 559.8 370.6Q560.9 372.6 560.9 375.3L560.9 375.3Q560.9 378.0 559.8 380.0Q558.8 382.0 556.8 383.2Q554.9 384.3 552.3 384.3ZM552.3 380.5L552.3 380.5Q553.5 380.5 554.3 379.9Q555.1 379.2 555.5 378.0Q555.9 376.8 555.9 375.3L555.9 375.3Q555.9 373.7 555.5 372.5Q555.1 371.3 554.3 370.7Q553.5 370.0 552.3 370.0L552.3 370.0Q551.1 370.0 550.3 370.7Q549.4 371.3 549.0 372.5Q548.6 373.7 548.6 375.3L548.6 375.3Q548.6 376.8 549.0 378.0Q549.4 379.2 550.3 379.9Q551.1 380.5 552.3 380.5ZM568.9 373.9L568.9 373.9L568.9 384.0L564.0 384.0L564.0 366.5L568.6 366.5L568.6 369.6L568.8 369.6Q569.4 368.1 570.8 367.2Q572.1 366.3 574.1 366.3L574.1 366.3Q575.9 366.3 577.3 367.1Q578.6 367.9 579.4 369.3Q580.1 370.8 580.1 372.8L580.1 372.8L580.1 384.0L575.3 384.0L575.3 373.7Q575.3 372.1 574.5 371.2Q573.6 370.3 572.2 370.3L572.2 370.3Q571.2 370.3 570.4 370.7Q569.7 371.1 569.3 371.9Q568.9 372.7 568.9 373.9ZM598.4 371.5L598.4 371.5L594.0 371.7Q593.9 371.2 593.5 370.7Q593.1 370.3 592.5 370.0Q591.9 369.7 591.1 369.7L591.1 369.7Q590.0 369.7 589.2 370.2Q588.4 370.6 588.4 371.4L588.4 371.4Q588.4 372.1 588.9 372.5Q589.4 372.9 590.6 373.2L590.6 373.2L593.8 373.8Q596.3 374.3 597.6 375.5Q598.8 376.7 598.8 378.5L598.8 378.5Q598.8 380.3 597.8 381.6Q596.8 382.8 595.1 383.6Q593.3 384.3 591.1 384.3L591.1 384.3Q587.6 384.3 585.6 382.8Q583.5 381.4 583.1 378.9L583.1 378.9L587.9 378.6Q588.1 379.7 589.0 380.3Q589.8 380.8 591.1 380.8L591.1 380.8Q592.4 380.8 593.1 380.3Q593.9 379.8 593.9 379.0L593.9 379.0Q593.9 378.4 593.4 377.9Q592.8 377.5 591.7 377.3L591.7 377.3L588.7 376.7Q586.1 376.2 584.9 374.9Q583.6 373.7 583.6 371.7L583.6 371.7Q583.6 370.0 584.5 368.8Q585.4 367.6 587.1 366.9Q588.8 366.3 591.0 366.3L591.0 366.3Q594.3 366.3 596.2 367.7Q598.1 369.1 598.4 371.5Z "/><mask id="satori_om-id-3-1"><rect x="600" y="354" width="600" height="39" fill="#fff"/></mask><path fill="#fff" d="M621.8 384.0L616.9 384.0L616.9 366.5L621.8 366.5L621.8 384.0ZM619.4 364.2L619.4 364.2Q618.3 364.2 617.5 363.5Q616.8 362.8 616.8 361.8L616.8 361.8Q616.8 360.8 617.5 360.1Q618.3 359.3 619.4 359.3L619.4 359.3Q620.4 359.3 621.2 360.1Q622.0 360.8 622.0 361.8L622.0 361.8Q622.0 362.8 621.2 363.5Q620.4 364.2 619.4 364.2ZM630.5 373.9L630.5 373.9L630.5 384.0L625.6 384.0L625.6 366.5L630.3 366.5L630.3 369.6L630.5 369.6Q631.0 368.1 632.4 367.2Q633.8 366.3 635.7 366.3L635.7 366.3Q637.5 366.3 638.9 367.1Q640.2 367.9 641.0 369.3Q641.7 370.8 641.7 372.8L641.7 372.8L641.7 384.0L636.9 384.0L636.9 373.7Q636.9 372.1 636.1 371.2Q635.2 370.3 633.8 370.3L633.8 370.3Q632.8 370.3 632.1 370.7Q631.3 371.1 630.9 371.9Q630.5 372.7 630.5 373.9ZM644.3 366.5L654.8 366.5L654.8 370.1L644.3 370.1L644.3 366.5ZM646.7 379.2L646.7 362.3L651.5 362.3L651.5 378.6Q651.5 379.3 651.7 379.6Q651.9 380.0 652.3 380.1Q652.7 380.3 653.2 380.3L653.2 380.3Q653.5 380.3 653.9 380.2Q654.2 380.2 654.4 380.1L654.4 380.1L655.1 383.7Q654.8 383.8 654.1 384.0Q653.5 384.2 652.5 384.2L652.5 384.2Q650.8 384.3 649.4 383.7Q648.1 383.2 647.4 382.1Q646.7 380.9 646.7 379.2L646.7 379.2ZM665.7 384.3L665.7 384.3Q663.0 384.3 661.1 383.2Q659.2 382.0 658.1 380.0Q657.1 378.0 657.1 375.3L657.1 375.3Q657.1 372.6 658.1 370.6Q659.2 368.5 661.1 367.4Q663.0 366.3 665.7 366.3L665.7 366.3Q668.3 366.3 670.2 367.4Q672.2 368.5 673.2 370.6Q674.3 372.6 674.3 375.3L674.3 375.3Q674.3 378.0 673.2 380.0Q672.2 382.0 670.2 383.2Q668.3 384.3 665.7 384.3ZM665.7 380.5L665.7 380.5Q666.9 380.5 667.7 379.9Q668.5 379.2 668.9 378.0Q669.3 376.8 669.3 375.3L669.3 375.3Q669.3 373.7 668.9 372.5Q668.5 371.3 667.7 370.7Q666.9 370.0 665.7 370.0L665.7 370.0Q664.5 370.0 663.7 370.7Q662.8 371.3 662.4 372.5Q662 373.7 662 375.3L662 375.3Q662 376.8 662.4 378.0Q662.8 379.2 663.7 379.9Q664.5 380.5 665.7 380.5Z M692.9 390.9L692.9 390.9Q690.5 390.9 688.9 390.2Q687.2 389.6 686.2 388.5Q685.2 387.4 684.9 386.0L684.9 386.0L689.4 385.4Q689.6 385.9 690.0 386.4Q690.5 386.8 691.2 387.1Q691.9 387.4 693 387.4L693 387.4Q694.6 387.4 695.6 386.6Q696.6 385.8 696.6 384.1L696.6 384.1L696.6 380.9L696.4 380.9Q696.1 381.6 695.5 382.2Q694.8 382.9 693.8 383.3Q692.8 383.7 691.5 383.7L691.5 383.7Q689.5 383.7 687.9 382.8Q686.3 381.9 685.3 380.0Q684.4 378.1 684.4 375.2L684.4 375.2Q684.4 372.2 685.3 370.2Q686.3 368.2 687.9 367.3Q689.5 366.3 691.4 366.3L691.4 366.3Q692.9 366.3 693.9 366.8Q694.9 367.3 695.5 368.0Q696.1 368.7 696.4 369.4L696.4 369.4L696.6 369.4L696.6 366.5L701.4 366.5L701.4 384.1Q701.4 386.3 700.3 387.8Q699.2 389.3 697.3 390.1Q695.4 390.9 692.9 390.9ZM693.0 380.1L693.0 380.1Q694.2 380.1 695.0 379.5Q695.8 378.9 696.2 377.8Q696.7 376.7 696.7 375.2L696.7 375.2Q696.7 373.6 696.2 372.5Q695.8 371.4 695.0 370.7Q694.2 370.1 693.0 370.1L693.0 370.1Q691.8 370.1 691.0 370.8Q690.2 371.4 689.7 372.5Q689.3 373.7 689.3 375.2L689.3 375.2Q689.3 376.7 689.7 377.8Q690.2 378.9 691.0 379.5Q691.8 380.1 693.0 380.1ZM710.3 384.3L710.3 384.3Q708.6 384.3 707.3 383.7Q706.0 383.1 705.2 382.0Q704.5 380.8 704.5 379.1L704.5 379.1Q704.5 377.6 705 376.6Q705.5 375.6 706.5 375.0Q707.4 374.4 708.6 374.1Q709.7 373.8 711.0 373.7L711.0 373.7Q712.5 373.5 713.5 373.4Q714.4 373.3 714.8 373.0Q715.3 372.7 715.3 372.1L715.3 372.1L715.3 372.1Q715.3 371.0 714.6 370.4Q713.9 369.8 712.7 369.8L712.7 369.8Q711.4 369.8 710.6 370.4Q709.8 371.0 709.6 371.8L709.6 371.8L705.1 371.5Q705.4 369.9 706.4 368.7Q707.4 367.5 709.0 366.9Q710.6 366.3 712.7 366.3L712.7 366.3Q714.1 366.3 715.5 366.6Q716.8 367.0 717.8 367.7Q718.9 368.4 719.5 369.5Q720.1 370.6 720.1 372.2L720.1 372.2L720.1 384.0L715.5 384.0L715.5 381.5L715.4 381.5Q714.9 382.3 714.2 383.0Q713.5 383.6 712.5 383.9Q711.6 384.3 710.3 384.3ZM711.6 380.9L711.6 380.9Q712.7 380.9 713.5 380.5Q714.4 380.1 714.8 379.4Q715.3 378.6 715.3 377.7L715.3 377.7L715.3 375.9Q715.1 376.0 714.7 376.1Q714.3 376.2 713.8 376.3Q713.3 376.4 712.8 376.5Q712.3 376.6 711.9 376.6L711.9 376.6Q711.1 376.8 710.4 377.0Q709.8 377.3 709.4 377.8Q709.1 378.2 709.1 378.9L709.1 378.9Q709.1 379.9 709.8 380.4Q710.5 380.9 711.6 380.9ZM728.7 384.0L723.9 384.0L723.9 366.5L728.5 366.5L728.5 369.6L728.7 369.6Q729.2 368.0 730.5 367.2Q731.8 366.3 733.5 366.3L733.5 366.3Q735.3 366.3 736.6 367.2Q737.9 368.1 738.3 369.6L738.3 369.6L738.5 369.6Q739.0 368.1 740.4 367.2Q741.8 366.3 743.7 366.3L743.7 366.3Q746.2 366.3 747.7 367.8Q749.2 369.4 749.2 372.2L749.2 372.2L749.2 384.0L744.4 384.0L744.4 373.2Q744.4 371.7 743.6 371.0Q742.8 370.3 741.7 370.3L741.7 370.3Q740.4 370.3 739.6 371.1Q738.9 371.9 738.9 373.3L738.9 373.3L738.9 384.0L734.2 384.0L734.2 373.1Q734.2 371.8 733.5 371.0Q732.7 370.3 731.5 370.3L731.5 370.3Q730.7 370.3 730.1 370.7Q729.4 371.1 729.1 371.8Q728.7 372.5 728.7 373.5L728.7 373.5L728.7 384.0ZM761.0 384.3L761.0 384.3Q758.3 384.3 756.4 383.2Q754.4 382.1 753.4 380.1Q752.3 378.1 752.3 375.3L752.3 375.3Q752.3 372.6 753.4 370.6Q754.4 368.5 756.3 367.4Q758.2 366.3 760.8 366.3L760.8 366.3Q762.5 366.3 764.0 366.8Q765.5 367.4 766.6 368.5Q767.8 369.6 768.4 371.2Q769 372.9 769 375.1L769 375.1L769 376.5L754.3 376.5L754.3 373.5L764.4 373.5Q764.4 372.4 764.0 371.6Q763.5 370.8 762.7 370.3Q761.9 369.9 760.9 369.9L760.9 369.9Q759.8 369.9 758.9 370.4Q758.1 370.9 757.6 371.7Q757.1 372.6 757.1 373.6L757.1 373.6L757.1 376.5Q757.1 377.8 757.6 378.7Q758.1 379.7 759.0 380.2Q759.9 380.7 761.1 380.7L761.1 380.7Q761.9 380.7 762.5 380.5Q763.2 380.2 763.7 379.8Q764.2 379.3 764.4 378.7L764.4 378.7L768.9 379.0Q768.6 380.6 767.5 381.8Q766.5 383.0 764.8 383.6Q763.1 384.3 761.0 384.3Z M787.4 390.9L787.4 390.9Q785.1 390.9 783.4 390.2Q781.7 389.6 780.8 388.5Q779.8 387.4 779.5 386.0L779.5 386.0L783.9 385.4Q784.1 385.9 784.6 386.4Q785.0 386.8 785.8 387.1Q786.5 387.4 787.6 387.4L787.6 387.4Q789.1 387.4 790.2 386.6Q791.2 385.8 791.2 384.1L791.2 384.1L791.2 380.9L791.0 380.9Q790.7 381.6 790.0 382.2Q789.4 382.9 788.4 383.3Q787.4 383.7 786.0 383.7L786.0 383.7Q784.0 383.7 782.4 382.8Q780.8 381.9 779.9 380.0Q778.9 378.1 778.9 375.2L778.9 375.2Q778.9 372.2 779.9 370.2Q780.9 368.2 782.5 367.3Q784.1 366.3 786 366.3L786 366.3Q787.5 366.3 788.5 366.8Q789.4 367.3 790.1 368.0Q790.7 368.7 791.0 369.4L791.0 369.4L791.2 369.4L791.2 366.5L796.0 366.5L796.0 384.1Q796.0 386.3 794.9 387.8Q793.8 389.3 791.9 390.1Q789.9 390.9 787.4 390.9ZM787.5 380.1L787.5 380.1Q788.7 380.1 789.5 379.5Q790.3 378.9 790.8 377.8Q791.2 376.7 791.2 375.2L791.2 375.2Q791.2 373.6 790.8 372.5Q790.4 371.4 789.5 370.7Q788.7 370.1 787.5 370.1L787.5 370.1Q786.4 370.1 785.5 370.8Q784.7 371.4 784.3 372.5Q783.9 373.7 783.9 375.2L783.9 375.2Q783.9 376.7 784.3 377.8Q784.7 378.9 785.5 379.5Q786.4 380.1 787.5 380.1ZM811.0 376.5L811.0 376.5L811.0 366.5L815.9 366.5L815.9 384.0L811.2 384.0L811.2 380.8L811.0 380.8Q810.5 382.3 809.1 383.2Q807.7 384.2 805.8 384.2L805.8 384.2Q804 384.2 802.7 383.4Q801.3 382.6 800.6 381.1Q799.9 379.7 799.8 377.6L799.8 377.6L799.8 366.5L804.7 366.5L804.7 376.7Q804.7 378.3 805.5 379.2Q806.3 380.1 807.7 380.1L807.7 380.1Q808.6 380.1 809.3 379.7Q810.1 379.3 810.6 378.5Q811.0 377.7 811.0 376.5ZM824.6 373.9L824.6 373.9L824.6 384.0L819.7 384.0L819.7 366.5L824.4 366.5L824.4 369.6L824.6 369.6Q825.1 368.1 826.5 367.2Q827.9 366.3 829.8 366.3L829.8 366.3Q831.6 366.3 833.0 367.1Q834.3 367.9 835.1 369.3Q835.8 370.8 835.8 372.8L835.8 372.8L835.8 384.0L831.0 384.0L831.0 373.7Q831 372.1 830.2 371.2Q829.3 370.3 827.9 370.3L827.9 370.3Q826.9 370.3 826.2 370.7Q825.4 371.1 825.0 371.9Q824.6 372.7 824.6 373.9ZM847.5 384.3L847.5 384.3Q844.8 384.3 842.9 383.2Q841.0 382.0 840.0 380.0Q838.9 377.9 838.9 375.3L838.9 375.3Q838.9 372.6 840.0 370.6Q841.0 368.6 842.9 367.4Q844.9 366.3 847.5 366.3L847.5 366.3Q849.8 366.3 851.5 367.1Q853.2 367.9 854.2 369.4Q855.2 370.9 855.3 373.0L855.3 373.0L850.7 373.0Q850.6 371.6 849.7 370.8Q848.9 370.0 847.6 370.0L847.6 370.0Q846.5 370.0 845.6 370.7Q844.8 371.3 844.3 372.4Q843.9 373.6 843.9 375.2L843.9 375.2Q843.9 376.9 844.3 378.1Q844.8 379.2 845.6 379.8Q846.5 380.5 847.6 380.5L847.6 380.5Q848.4 380.5 849.1 380.1Q849.7 379.8 850.2 379.1Q850.6 378.5 850.7 377.6L850.7 377.6L855.3 377.6Q855.2 379.6 854.2 381.1Q853.3 382.6 851.6 383.4Q849.9 384.3 847.5 384.3ZM857.2 366.5L867.7 366.5L867.7 370.1L857.2 370.1L857.2 366.5ZM859.6 379.2L859.6 362.3L864.4 362.3L864.4 378.6Q864.4 379.3 864.6 379.6Q864.8 380.0 865.2 380.1Q865.6 380.3 866.1 380.3L866.1 380.3Q866.4 380.3 866.7 380.2Q867.1 380.2 867.3 380.1L867.3 380.1L868.0 383.7Q867.7 383.8 867.0 384.0Q866.4 384.2 865.4 384.2L865.4 384.2Q863.7 384.3 862.3 383.7Q861.0 383.2 860.3 382.1Q859.6 380.9 859.6 379.2L859.6 379.2ZM875.7 384.0L870.9 384.0L870.9 366.5L875.7 366.5L875.7 384.0ZM873.3 364.2L873.3 364.2Q872.2 364.2 871.4 363.5Q870.7 362.8 870.7 361.8L870.7 361.8Q870.7 360.8 871.4 360.1Q872.2 359.3 873.3 359.3L873.3 359.3Q874.4 359.3 875.1 360.1Q875.9 360.8 875.9 361.8L875.9 361.8Q875.9 362.8 875.1 363.5Q874.4 364.2 873.3 364.2ZM887.5 384.3L887.5 384.3Q884.8 384.3 882.9 383.2Q881.0 382.0 879.9 380.0Q878.9 378.0 878.9 375.3L878.9 375.3Q878.9 372.6 879.9 370.6Q881.0 368.5 882.9 367.4Q884.8 366.3 887.5 366.3L887.5 366.3Q890.1 366.3 892.0 367.4Q894.0 368.5 895.0 370.6Q896.0 372.6 896.0 375.3L896.0 375.3Q896.0 378.0 895.0 380.0Q894.0 382.0 892.0 383.2Q890.1 384.3 887.5 384.3ZM887.5 380.5L887.5 380.5Q888.7 380.5 889.5 379.9Q890.3 379.2 890.7 378.0Q891.1 376.8 891.1 375.3L891.1 375.3Q891.1 373.7 890.7 372.5Q890.3 371.3 889.5 370.7Q888.7 370.0 887.5 370.0L887.5 370.0Q886.3 370.0 885.4 370.7Q884.6 371.3 884.2 372.5Q883.8 373.7 883.8 375.3L883.8 375.3Q883.8 376.8 884.2 378.0Q884.6 379.2 885.4 379.9Q886.3 380.5 887.5 380.5ZM904.0 373.9L904.0 373.9L904.0 384.0L899.2 384.0L899.2 366.5L903.8 366.5L903.8 369.6L904.0 369.6Q904.6 368.1 906.0 367.2Q907.3 366.3 909.3 366.3L909.3 366.3Q911.1 366.3 912.4 367.1Q913.8 367.9 914.5 369.3Q915.3 370.8 915.3 372.8L915.3 372.8L915.3 384.0L910.5 384.0L910.5 373.7Q910.5 372.1 909.6 371.2Q908.8 370.3 907.4 370.3L907.4 370.3Q906.4 370.3 905.6 370.7Q904.9 371.1 904.5 371.9Q904.1 372.7 904.0 373.9ZM933.6 371.5L933.6 371.5L929.2 371.7Q929.1 371.2 928.7 370.7Q928.3 370.3 927.7 370.0Q927.1 369.7 926.3 369.7L926.3 369.7Q925.1 369.7 924.4 370.2Q923.6 370.6 923.6 371.4L923.6 371.4Q923.6 372.1 924.1 372.5Q924.6 372.9 925.8 373.2L925.8 373.2L929.0 373.8Q931.5 374.3 932.8 375.5Q934.0 376.7 934.0 378.5L934.0 378.5Q934.0 380.3 933.0 381.6Q932.0 382.8 930.3 383.6Q928.5 384.3 926.2 384.3L926.2 384.3Q922.8 384.3 920.7 382.8Q918.7 381.4 918.3 378.9L918.3 378.9L923.1 378.6Q923.3 379.7 924.1 380.3Q925.0 380.8 926.3 380.8L926.3 380.8Q927.5 380.8 928.3 380.3Q929.1 379.8 929.1 379.0L929.1 379.0Q929.1 378.4 928.5 377.9Q928.0 377.5 926.9 377.3L926.9 377.3L923.8 376.7Q921.3 376.2 920.0 374.9Q918.8 373.7 918.8 371.7L918.8 371.7Q918.8 370.0 919.7 368.8Q920.6 367.6 922.3 366.9Q924.0 366.3 926.2 366.3L926.2 366.3Q929.5 366.3 931.4 367.7Q933.3 369.1 933.6 371.5Z "/><mask id="satori_om-id-4"><rect x="0" y="413" width="1200" height="39" fill="#fff"/></mask><mask id="satori_om-id-4-0"><rect x="0" y="413" width="600" height="39" fill="#fff"/></mask><mask id="satori_om-id-4-1"><rect x="600" y="413" width="600" height="39" fill="#fff"/></mask><path fill="#0" d="M621.8 449.5L616.9 449.5L616.9 425.5L621.7 425.5L621.7 428.4L621.9 428.4Q622.2 427.7 622.8 427.0Q623.5 426.3 624.4 425.8Q625.4 425.3 626.9 425.3L626.9 425.3Q628.8 425.3 630.4 426.3Q632.0 427.3 633.0 429.3Q634.0 431.2 634.0 434.2L634.0 434.2Q634.0 437.2 633.0 439.2Q632.1 441.2 630.5 442.2Q628.9 443.2 626.9 443.2L626.9 443.2Q625.5 443.2 624.5 442.8Q623.5 442.3 622.9 441.6Q622.3 440.9 621.9 440.2L621.9 440.2L621.8 440.2L621.8 449.5ZM621.7 434.2L621.7 434.2Q621.7 435.8 622.1 436.9Q622.5 438.1 623.4 438.7Q624.2 439.4 625.3 439.4L625.3 439.4Q626.5 439.4 627.3 438.7Q628.2 438.1 628.6 436.9Q629.0 435.7 629.0 434.2L629.0 434.2Q629.0 432.7 628.6 431.6Q628.2 430.4 627.4 429.8Q626.5 429.1 625.3 429.1L625.3 429.1Q624.2 429.1 623.3 429.7Q622.5 430.4 622.1 431.5Q621.7 432.7 621.7 434.2ZM637.2 419.7L642.0 419.7L642.0 443.0L637.2 443.0L637.2 419.7ZM650.9 443.3L650.9 443.3Q649.2 443.3 647.9 442.7Q646.6 442.1 645.8 441.0Q645.1 439.8 645.1 438.1L645.1 438.1Q645.1 436.6 645.6 435.6Q646.1 434.6 647.0 434.0Q648.0 433.4 649.1 433.1Q650.3 432.8 651.6 432.7L651.6 432.7Q653.1 432.5 654.1 432.4Q655 432.3 655.4 432.0Q655.8 431.7 655.8 431.1L655.8 431.1L655.8 431.1Q655.8 430.0 655.2 429.4Q654.5 428.8 653.3 428.8L653.3 428.8Q651.9 428.8 651.2 429.4Q650.4 430.0 650.1 430.8L650.1 430.8L645.7 430.5Q646.0 428.9 647.0 427.7Q648.0 426.5 649.6 425.9Q651.2 425.3 653.3 425.3L653.3 425.3Q654.7 425.3 656.1 425.6Q657.4 426.0 658.4 426.7Q659.5 427.4 660.1 428.5Q660.7 429.6 660.7 431.2L660.7 431.2L660.7 443.0L656.1 443.0L656.1 440.5L656.0 440.5Q655.5 441.3 654.8 442.0Q654.1 442.6 653.1 442.9Q652.1 443.3 650.9 443.3ZM652.2 439.9L652.2 439.9Q653.3 439.9 654.1 439.5Q654.9 439.1 655.4 438.4Q655.9 437.6 655.9 436.7L655.9 436.7L655.9 434.9Q655.6 435.0 655.3 435.1Q654.9 435.2 654.4 435.3Q653.9 435.4 653.4 435.5Q652.9 435.6 652.5 435.6L652.5 435.6Q651.7 435.8 651.0 436.0Q650.4 436.3 650.0 436.8Q649.7 437.2 649.7 437.9L649.7 437.9Q649.7 438.9 650.4 439.4Q651.1 439.9 652.2 439.9ZM666.8 449.5L666.8 449.5Q665.9 449.5 665.1 449.4Q664.3 449.2 663.8 449.0L663.8 449.0L664.8 445.4Q665.7 445.6 666.4 445.7Q667.1 445.7 667.6 445.3Q668.1 445.0 668.4 444.2L668.4 444.2L668.7 443.5L662.4 425.5L667.5 425.5L671.1 438.3L671.3 438.3L675.0 425.5L680.1 425.5L673.3 444.8Q672.8 446.2 672.0 447.3Q671.1 448.3 669.9 448.9Q668.6 449.5 666.8 449.5Z "/></svg>